<svg width="146" height="125" viewBox="0 0 146 125" fill="none" xmlns="http://www.w3.org/2000/svg">
<g filter="url(#filter0_d_844_23863)">
<rect x="5.68945" y="5" width="91.9844" height="91.7978" rx="7" fill="white"/>
</g>
<path d="M111.571 53.9219V53.1804L113.865 50.8038C114.11 50.5456 114.312 50.3194 114.471 50.1252C114.632 49.9288 114.752 49.7423 114.831 49.5658C114.911 49.3892 114.951 49.2017 114.951 49.0031C114.951 48.778 114.898 48.5838 114.792 48.4205C114.686 48.255 114.541 48.1281 114.358 48.0398C114.175 47.9494 113.969 47.9041 113.739 47.9041C113.496 47.9041 113.285 47.9538 113.104 48.0531C112.923 48.1524 112.784 48.2925 112.687 48.4735C112.589 48.6544 112.541 48.8663 112.541 49.109H111.564C111.564 48.6963 111.659 48.3355 111.849 48.0266C112.039 47.7176 112.299 47.4782 112.63 47.3083C112.961 47.1362 113.338 47.0501 113.759 47.0501C114.185 47.0501 114.56 47.1351 114.884 47.305C115.211 47.4727 115.466 47.7022 115.649 47.9935C115.832 48.2826 115.924 48.6092 115.924 48.9733C115.924 49.2248 115.876 49.4709 115.781 49.7114C115.689 49.952 115.527 50.2201 115.295 50.5158C115.063 50.8093 114.741 51.1657 114.328 51.5849L112.981 52.995V53.0447H116.033V53.9219H111.571ZM119.654 54.0146C119.352 54.0101 119.054 53.955 118.761 53.8491C118.469 53.7431 118.204 53.5666 117.966 53.3194C117.728 53.0723 117.537 52.7402 117.393 52.3231C117.252 51.906 117.182 51.3852 117.182 50.7607C117.182 50.1693 117.24 49.6441 117.357 49.1851C117.476 48.7261 117.647 48.3388 117.87 48.0233C118.093 47.7055 118.362 47.4639 118.678 47.2984C118.993 47.1329 119.348 47.0501 119.74 47.0501C120.144 47.0501 120.503 47.1296 120.816 47.2884C121.129 47.4473 121.383 47.6669 121.577 47.9471C121.774 48.2274 121.899 48.5463 121.952 48.9038H120.942C120.874 48.6213 120.738 48.3907 120.535 48.212C120.332 48.0332 120.067 47.9438 119.74 47.9438C119.244 47.9438 118.857 48.1601 118.579 48.5926C118.303 49.0251 118.164 49.6265 118.161 50.3966H118.211C118.328 50.2046 118.471 50.0413 118.641 49.9067C118.814 49.7699 119.006 49.6651 119.217 49.5923C119.431 49.5172 119.656 49.4797 119.893 49.4797C120.285 49.4797 120.641 49.5757 120.958 49.7677C121.278 49.9575 121.533 50.2201 121.723 50.5555C121.913 50.8909 122.008 51.2749 122.008 51.7074C122.008 52.1399 121.91 52.5316 121.713 52.8825C121.519 53.2334 121.245 53.5114 120.892 53.7166C120.539 53.9197 120.127 54.019 119.654 54.0146ZM119.651 53.1539C119.911 53.1539 120.144 53.0899 120.349 52.9619C120.555 52.834 120.717 52.6618 120.836 52.4456C120.955 52.2293 121.015 51.9877 121.015 51.7207C121.015 51.4603 120.956 51.223 120.839 51.009C120.725 50.7949 120.566 50.625 120.363 50.4992C120.162 50.3735 119.932 50.3106 119.674 50.3106C119.478 50.3106 119.296 50.3481 119.128 50.4231C118.962 50.4981 118.817 50.6018 118.691 50.7343C118.565 50.8667 118.466 51.0189 118.393 51.191C118.323 51.361 118.287 51.5408 118.287 51.7306C118.287 51.9844 118.346 52.2194 118.463 52.4356C118.582 52.6519 118.744 52.8262 118.949 52.9586C119.157 53.0888 119.391 53.1539 119.651 53.1539ZM123.071 52.5978V51.7703L126.001 47.1428H126.653V48.3609H126.239L124.144 51.6776V51.7306H128.159V52.5978H123.071ZM126.285 53.9219V52.3463L126.292 51.9689V47.1428H127.262V53.9219H126.285ZM131.792 55.8285V48.8376H132.759V49.6618H132.842C132.899 49.5559 132.982 49.4334 133.09 49.2944C133.198 49.1553 133.348 49.034 133.54 48.9302C133.732 48.8243 133.986 48.7714 134.301 48.7714C134.712 48.7714 135.078 48.8751 135.4 49.0825C135.723 49.2899 135.975 49.589 136.158 49.9795C136.344 50.3701 136.436 50.8402 136.436 51.3897C136.436 51.9391 136.345 52.4103 136.162 52.8031C135.979 53.1937 135.727 53.4949 135.407 53.7067C135.087 53.9164 134.722 54.0212 134.311 54.0212C134.002 54.0212 133.75 53.9693 133.553 53.8656C133.359 53.7619 133.207 53.6405 133.097 53.5015C132.986 53.3625 132.901 53.2389 132.842 53.1308H132.782V55.8285H131.792ZM132.762 51.3797C132.762 51.7372 132.814 52.0506 132.918 52.3198C133.022 52.589 133.172 52.7998 133.368 52.952C133.564 53.1021 133.805 53.1771 134.09 53.1771C134.385 53.1771 134.632 53.0988 134.831 52.9421C135.03 52.7832 135.18 52.568 135.281 52.2966C135.385 52.0252 135.437 51.7196 135.437 51.3797C135.437 51.0443 135.386 50.7431 135.285 50.4761C135.185 50.209 135.035 49.9983 134.834 49.8438C134.636 49.6894 134.388 49.6121 134.09 49.6121C133.803 49.6121 133.56 49.6861 133.361 49.8339C133.165 49.9818 133.016 50.1881 132.915 50.4529C132.813 50.7177 132.762 51.0266 132.762 51.3797ZM138.126 48.8376L139.248 50.817L140.38 48.8376H141.463L139.877 51.3797L141.476 53.9219H140.394L139.248 52.0219L138.106 53.9219H137.021L138.603 51.3797L137.041 48.8376H138.126Z" fill="#0A1215"/>
<path d="M100.249 5.73242H104.664V96.4286H100.249" stroke="black" stroke-width="0.332901"/>
<path d="M35.0408 119.279V118.538L37.3347 116.161C37.5796 115.903 37.7815 115.677 37.9404 115.483C38.1015 115.286 38.2218 115.1 38.3012 114.923C38.3806 114.747 38.4204 114.559 38.4204 114.36C38.4204 114.135 38.3674 113.941 38.2615 113.778C38.1556 113.612 38.011 113.486 37.8279 113.397C37.6447 113.307 37.4384 113.262 37.2089 113.262C36.9661 113.262 36.7543 113.311 36.5733 113.41C36.3924 113.51 36.2534 113.65 36.1563 113.831C36.0592 114.012 36.0106 114.224 36.0106 114.466H35.0341C35.0341 114.054 35.129 113.693 35.3188 113.384C35.5086 113.075 35.769 112.836 36.1 112.666C36.431 112.494 36.8072 112.408 37.2287 112.408C37.6546 112.408 38.0298 112.492 38.3542 112.662C38.6808 112.83 38.9356 113.06 39.1188 113.351C39.302 113.64 39.3935 113.967 39.3935 114.331C39.3935 114.582 39.3461 114.828 39.2512 115.069C39.1585 115.309 38.9963 115.578 38.7646 115.873C38.5329 116.167 38.2107 116.523 37.7981 116.942L36.4509 118.352V118.402H39.5028V119.279H35.0408ZM43.124 119.372C42.8217 119.368 42.5238 119.312 42.2303 119.206C41.939 119.101 41.6742 118.924 41.4359 118.677C41.1975 118.43 41.0067 118.098 40.8632 117.681C40.722 117.263 40.6514 116.743 40.6514 116.118C40.6514 115.527 40.7099 115.002 40.8268 114.543C40.946 114.084 41.117 113.696 41.3399 113.381C41.5628 113.063 41.832 112.821 42.1475 112.656C42.4631 112.49 42.8173 112.408 43.2101 112.408C43.6139 112.408 43.9725 112.487 44.2859 112.646C44.5992 112.805 44.853 113.024 45.0472 113.305C45.2436 113.585 45.3683 113.904 45.4212 114.261H44.4116C44.3432 113.979 44.2075 113.748 44.0045 113.569C43.8015 113.391 43.5367 113.301 43.2101 113.301C42.7136 113.301 42.3263 113.518 42.0482 113.95C41.7724 114.383 41.6334 114.984 41.6312 115.754H41.6808C41.7978 115.562 41.9412 115.399 42.1111 115.264C42.2833 115.127 42.4752 115.023 42.6871 114.95C42.9011 114.875 43.1262 114.837 43.3623 114.837C43.7551 114.837 44.1104 114.933 44.4282 115.125C44.7482 115.315 45.0031 115.578 45.1928 115.913C45.3826 116.248 45.4775 116.632 45.4775 117.065C45.4775 117.497 45.3793 117.889 45.1829 118.24C44.9887 118.591 44.7151 118.869 44.362 119.074C44.0089 119.277 43.5963 119.376 43.124 119.372ZM43.1207 118.511C43.3811 118.511 43.6139 118.447 43.8191 118.319C44.0244 118.191 44.1866 118.019 44.3057 117.803C44.4249 117.587 44.4845 117.345 44.4845 117.078C44.4845 116.818 44.426 116.58 44.309 116.366C44.1943 116.152 44.0354 115.982 43.8324 115.857C43.6316 115.731 43.4021 115.668 43.1439 115.668C42.9475 115.668 42.7654 115.705 42.5977 115.781C42.4322 115.856 42.2866 115.959 42.1608 116.092C42.035 116.224 41.9357 116.376 41.8629 116.548C41.7923 116.718 41.7569 116.898 41.7569 117.088C41.7569 117.342 41.8154 117.577 41.9324 117.793C42.0515 118.009 42.2137 118.184 42.419 118.316C42.6264 118.446 42.8603 118.511 43.1207 118.511ZM46.5409 117.955V117.128L49.4703 112.5H50.1224V113.718H49.7086L47.6133 117.035V117.088H51.6285V117.955H46.5409ZM49.755 119.279V117.704L49.7616 117.326V112.5H50.7315V119.279H49.755ZM55.2621 121.186V114.195H56.2287V115.019H56.3114C56.3688 114.913 56.4516 114.791 56.5597 114.652C56.6678 114.513 56.8179 114.391 57.0099 114.288C57.2019 114.182 57.4556 114.129 57.7712 114.129C58.1817 114.129 58.548 114.233 58.8702 114.44C59.1923 114.647 59.445 114.946 59.6282 115.337C59.8135 115.728 59.9062 116.198 59.9062 116.747C59.9062 117.297 59.8146 117.768 59.6315 118.16C59.4483 118.551 59.1967 118.852 58.8768 119.064C58.5568 119.274 58.1916 119.379 57.7811 119.379C57.4722 119.379 57.2195 119.327 57.0231 119.223C56.8289 119.119 56.6767 118.998 56.5663 118.859C56.456 118.72 56.371 118.596 56.3114 118.488H56.2519V121.186H55.2621ZM56.232 116.737C56.232 117.095 56.2839 117.408 56.3876 117.677C56.4913 117.946 56.6414 118.157 56.8378 118.309C57.0342 118.459 57.2747 118.535 57.5594 118.535C57.8551 118.535 58.1022 118.456 58.3008 118.3C58.4994 118.141 58.6495 117.925 58.751 117.654C58.8547 117.383 58.9066 117.077 58.9066 116.737C58.9066 116.402 58.8558 116.1 58.7543 115.833C58.655 115.566 58.5049 115.356 58.3041 115.201C58.1055 115.047 57.8573 114.97 57.5594 114.97C57.2725 114.97 57.0297 115.043 56.8311 115.191C56.6347 115.339 56.4858 115.546 56.3843 115.81C56.2828 116.075 56.232 116.384 56.232 116.737ZM61.596 114.195L62.7181 116.174L63.8502 114.195H64.9326L63.3471 116.737L64.9458 119.279H63.8634L62.7181 117.379L61.5762 119.279H60.4904L62.0727 116.737L60.5103 114.195H61.596Z" fill="#0A1215"/>
<path d="M97.3057 99.7344L97.3057 104.141L6.42512 104.141L6.42512 99.7344" stroke="black" stroke-width="0.332901"/>
<rect x="24.5869" y="26.7949" width="54.9265" height="54.8131" stroke="black" stroke-dasharray="4 4"/>
<defs>
<filter id="filter0_d_844_23863" x="0.689453" y="0" width="101.984" height="101.797" filterUnits="userSpaceOnUse" color-interpolation-filters="sRGB">
<feFlood flood-opacity="0" result="BackgroundImageFix"/>
<feColorMatrix in="SourceAlpha" type="matrix" values="0 0 0 0 0 0 0 0 0 0 0 0 0 0 0 0 0 0 127 0" result="hardAlpha"/>
<feMorphology radius="1" operator="dilate" in="SourceAlpha" result="effect1_dropShadow_844_23863"/>
<feOffset/>
<feGaussianBlur stdDeviation="2"/>
<feComposite in2="hardAlpha" operator="out"/>
<feColorMatrix type="matrix" values="0 0 0 0 0.351667 0 0 0 0 0.351667 0 0 0 0 0.351667 0 0 0 0.25 0"/>
<feBlend mode="normal" in2="BackgroundImageFix" result="effect1_dropShadow_844_23863"/>
<feBlend mode="normal" in="SourceGraphic" in2="effect1_dropShadow_844_23863" result="shape"/>
</filter>
</defs>
</svg>
