<?xml version="1.0" encoding="UTF-8"?>
<svg version="1.1" xmlns="http://www.w3.org/2000/svg" width="512" height="512">
<path d="M0 0 C0.75000123 -0.00579339 1.50000246 -0.01158677 2.27273101 -0.01755571 C4.78131709 -0.03556723 7.28988084 -0.04647261 9.79850769 -0.05725098 C11.59905194 -0.06843074 13.39959414 -0.07994421 15.20013428 -0.09176636 C21.1081403 -0.12826314 27.01616736 -0.15353032 32.92424011 -0.1763916 C33.93003546 -0.18033747 34.9358308 -0.18428333 35.97210479 -0.18834877 C45.45979554 -0.22475471 54.94749382 -0.25619081 64.43523121 -0.27745819 C76.56305341 -0.30504814 88.69029183 -0.3558626 100.81787091 -0.43793249 C109.3505044 -0.4937181 117.8829794 -0.52269299 126.41578883 -0.5319314 C131.51020248 -0.53818784 136.60393066 -0.55630164 141.69814491 -0.60331726 C146.49104435 -0.64700717 151.28288397 -0.65746503 156.07594872 -0.64268875 C157.83193794 -0.64301719 159.58797297 -0.65527719 161.34378052 -0.68053818 C176.24964666 -0.88362347 176.24964666 -0.88362347 180.69273376 2.84416199 C181.975729 4.26316001 183.23004204 5.70823181 184.46720886 7.1673584 C185.99628422 8.71212143 187.55551734 10.22297857 189.11557215 11.73642552 C192.30418739 14.83931402 195.43484098 18.00053074 198.57829285 21.14904785 C199.99634496 22.56574328 201.41460936 23.98222625 202.83306885 25.39851379 C206.66545401 29.22635894 210.49469218 33.05733753 214.32321811 36.88904214 C218.33309898 40.9014614 222.34542656 44.91143281 226.35736084 48.92179871 C233.08644988 55.64907164 239.81343442 62.37844358 246.53923035 69.10900879 C254.3218661 76.89709936 262.10811569 84.68156302 269.89622635 92.46417838 C276.58523602 99.14865684 283.27230353 105.83507353 289.95773751 112.52312821 C293.95005217 116.5170039 297.94304427 120.51019601 301.93778801 124.50164223 C305.68699727 128.24797222 309.43376978 131.99672201 313.17864037 135.74738884 C314.55608965 137.12616485 315.9343989 138.50408233 317.31361008 139.88109589 C319.18938394 141.7541552 321.06207906 143.63023817 322.93399048 145.50715637 C323.48591723 146.05685241 324.03784399 146.60654844 324.6064958 147.17290193 C328.39351084 150.97972095 329.59075295 152.67803459 329.60142994 158.00432682 C329.60588778 159.03239352 329.61034563 160.06046023 329.61493856 161.11968046 C329.61466201 162.82696535 329.61466201 162.82696535 329.61437988 164.56874084 C329.61805657 165.77127013 329.62173326 166.97379941 329.62552136 168.21276897 C329.63466083 171.56171099 329.63926072 174.91060395 329.64191067 178.25955379 C329.64580957 181.86792889 329.65538877 185.47628974 329.66412354 189.08465576 C329.68390865 197.80923168 329.69396068 206.53380879 329.70285133 215.25840154 C329.70723438 219.37000648 329.71260147 223.48161012 329.71784019 227.59321404 C329.7348611 241.26973611 329.74935111 254.94625738 329.75658894 268.62278843 C329.75849878 272.17402205 329.76041911 275.72525566 329.76237488 279.27648926 C329.76285862 280.15911156 329.76334236 281.04173387 329.76384076 281.95110231 C329.77212527 296.22085456 329.79743153 310.49052254 329.82995556 324.76023806 C329.86309996 339.42229604 329.8810447 354.08431135 329.88423318 368.74640697 C329.8863924 376.97362067 329.89505345 385.20071181 329.92069435 393.42788887 C329.94250311 400.44172978 329.95040248 407.4554184 329.94072757 414.46928937 C329.93621091 418.04207351 329.93791277 421.6145442 329.95748901 425.18728447 C330.08447778 449.77870855 328.30549245 471.69683981 310.5287323 490.16149902 C309.18737591 491.50932646 307.82778627 492.83893644 306.46720886 494.1673584 C305.48300964 495.18249512 305.48300964 495.18249512 304.47892761 496.21813965 C298.81036498 501.69249029 291.76980232 505.32361091 284.46720886 508.1673584 C283.21779998 508.67220717 283.21779998 508.67220717 281.94315052 509.18725491 C269.46987594 513.47653135 256.65996241 512.73654972 243.62809753 512.70080566 C240.91471833 512.70568305 238.20136936 512.7164844 235.48800659 512.72691345 C228.90949665 512.74844845 222.3311604 512.74845353 215.75262686 512.74028791 C210.39982913 512.73396247 205.04708168 512.73514812 199.69428444 512.74155998 C198.92953916 512.74246164 198.16479389 512.74336329 197.37687451 512.74429227 C195.82278741 512.74614367 194.26870031 512.74800623 192.71461324 512.74987983 C178.1725804 512.76642223 163.63064485 512.75777005 149.0886179 512.74089425 C135.81866195 512.72620608 122.54893262 512.74081953 109.27900585 512.76966441 C95.61547597 512.79914102 81.95205037 512.81000634 68.28849012 512.80048221 C66.73952029 512.79945978 65.19055044 512.79846517 63.64158058 512.7974987 C62.87967986 512.79702231 62.11777914 512.79654592 61.33279052 512.7960551 C55.9955439 512.79390154 50.65839721 512.80363842 45.32117271 512.81826973 C38.80346391 512.83588965 32.28604351 512.83553892 25.76834556 512.81291807 C22.45048816 512.80186118 19.13354918 512.80117451 15.81565094 512.81721878 C-7.53811199 512.92115416 -26.61620689 510.2563373 -44.22810364 493.46032715 C-44.98865051 492.70364746 -45.74919739 491.94696777 -46.53279114 491.1673584 C-47.23146301 490.50349121 -47.93013489 489.83962402 -48.64997864 489.15563965 C-52.94295989 484.77078526 -55.97202962 480.0139631 -58.78279114 474.6048584 C-59.10006165 474.01116455 -59.41733215 473.4174707 -59.74421692 472.80578613 C-65.87159961 460.32724088 -67.12517441 447.16804161 -66.92341614 433.5111084 C-66.91592737 431.98698684 -66.91024697 430.46285546 -66.90626526 428.9387207 C-66.89121559 424.9865108 -66.85212144 421.03491795 -66.80744934 417.08294678 C-66.76604168 413.02653341 -66.74815861 408.97001732 -66.72810364 404.91345215 C-66.68559941 396.99780887 -66.61761032 389.08266103 -66.53279114 381.1673584 C-67.70550819 381.17735115 -67.70550819 381.17735115 -68.9019165 381.18754578 C-76.30131474 381.24787544 -83.70059223 381.29344315 -91.100173 381.32279491 C-94.90358485 381.33839269 -98.70679199 381.35952188 -102.51008606 381.39367676 C-106.18649343 381.42648225 -109.86270497 381.4442556 -113.53924751 381.45199013 C-114.93575685 381.45749591 -116.33225653 381.46824654 -117.72868156 381.48454857 C-127.20434452 381.59068122 -136.50554937 381.60123915 -143.90779114 374.9173584 C-144.53427551 374.37595215 -145.16075989 373.8345459 -145.80622864 373.2767334 C-151.3552405 366.49739763 -150.96750846 359.42602194 -150.93684387 351.03112793 C-150.94370712 349.71807678 -150.95057037 348.40502563 -150.9576416 347.05218506 C-150.97552516 343.46526144 -150.97441357 339.8785831 -150.96869922 336.29162836 C-150.96559983 333.28983117 -150.97170825 330.28808059 -150.97773796 327.28629005 C-150.99176632 320.2002197 -150.99023653 313.11426995 -150.97883606 306.02819824 C-150.96736122 298.7350624 -150.98142346 291.44229458 -151.00823253 284.14920723 C-151.030437 277.87209341 -151.03701612 271.59509469 -151.03115612 265.31794441 C-151.02779607 261.57574579 -151.03013756 257.83378292 -151.04740715 254.09161758 C-151.06584187 249.91496986 -151.0516406 245.7390312 -151.03450012 241.56237793 C-151.04416809 240.33403229 -151.05383606 239.10568665 -151.063797 237.84011841 C-150.99731677 230.08906159 -150.26751212 223.1697356 -144.78279781 217.29194832 C-139.54122775 212.43993566 -134.88340694 210.9137383 -127.72297668 210.94030762 C-127.05900375 210.94001556 -126.39503082 210.93972351 -125.7109375 210.93942261 C-123.53032571 210.9408088 -121.35006152 210.95633601 -119.16950989 210.9720459 C-117.65208116 210.97577856 -116.13465002 210.97862434 -114.61721802 210.98062134 C-110.63382754 210.98823785 -106.65058416 211.00786917 -102.66725159 211.0300293 C-98.59836313 211.05053054 -94.52945079 211.05963219 -90.46052551 211.06970215 C-82.48454674 211.09111706 -74.50868727 211.12522891 -66.53279114 211.1673584 C-66.53647831 210.41420097 -66.54016548 209.66104355 -66.54396439 208.88506317 C-66.63259304 190.49501407 -66.6986351 172.10500802 -66.74003983 153.71479034 C-66.76059893 144.82113437 -66.78859107 135.92762162 -66.83454895 127.03405762 C-66.87462175 119.2755989 -66.90027219 111.51724399 -66.90914512 103.75868464 C-66.91432555 99.65673615 -66.92635969 95.55508445 -66.95571136 91.45323181 C-66.9832051 87.57901136 -66.99116901 83.70520513 -66.98522186 79.83089638 C-66.98630715 78.42176867 -66.99405657 77.01262463 -67.00961304 75.60358238 C-67.14640159 62.55499799 -65.03531821 49.44342505 -58.84529114 37.7923584 C-58.33373474 36.8033252 -58.33373474 36.8033252 -57.81184387 35.79431152 C-54.55999134 29.76727919 -50.48777209 24.8924691 -45.53279114 20.1673584 C-44.82380676 19.46224121 -44.11482239 18.75712402 -43.38435364 18.03063965 C-31.49848184 6.76695247 -16.40860316 0.04390312 0 0 Z M-36.84529114 35.4173584 C-47.52907047 48.18097182 -50.00768215 62.85113341 -49.87336731 79.02380371 C-49.87251895 80.473831 -49.87300025 81.92385957 -49.87469482 83.37388611 C-49.87554806 87.27192737 -49.85803262 91.16968607 -49.83697295 95.06766224 C-49.81809277 99.15554649 -49.81644684 103.24343874 -49.81289673 107.33135986 C-49.80360933 115.05524449 -49.7790408 122.77900023 -49.74884826 130.50282836 C-49.71520074 139.30340463 -49.69879233 148.10398738 -49.68376195 156.90461206 C-49.6524879 174.99226698 -49.59979242 193.07980229 -49.53279114 211.1673584 C-48.96663306 211.16795549 -48.40047499 211.16855258 -47.81716061 211.16916776 C-14.25613841 211.20506785 19.3047799 211.26171622 52.86571693 211.34527935 C56.89612924 211.35529671 60.92654196 211.36514086 64.95695496 211.37487793 C66.16052029 211.37778999 66.16052029 211.37778999 67.38840008 211.38076088 C80.37747634 211.41177531 93.36653494 211.42875997 106.35564125 211.44055262 C119.68535654 211.45296707 133.01497917 211.4804751 146.34463596 211.52197146 C154.5686458 211.54709849 162.79250195 211.56047626 171.01655072 211.55878797 C176.65739685 211.5587582 182.29808653 211.5733999 187.93887168 211.59952268 C191.19255747 211.61415916 194.44585825 211.62020404 197.69957924 211.61316109 C201.23102682 211.6065349 204.76153905 211.62441075 208.29289246 211.64837646 C209.31625482 211.64061605 210.33961718 211.63285563 211.39399052 211.62486005 C218.5879281 211.71127825 224.25629218 213.04783404 229.52580261 218.1673584 C229.98084167 218.8273584 230.43588074 219.4873584 230.90470886 220.1673584 C231.3777948 220.8273584 231.85088074 221.4873584 232.33830261 222.1673584 C234.46963606 225.94328478 234.59586979 229.47461262 234.61437988 233.75762939 C234.62511284 235.46502289 234.62511284 235.46502289 234.63606262 237.20690918 C234.63875153 238.45166016 234.64144043 239.69641113 234.64421082 240.97888184 C234.65078201 242.2931012 234.65735321 243.60732056 234.66412354 244.96136475 C234.68512271 249.3164753 234.69552197 253.67158604 234.70549011 258.0267334 C234.7095392 259.52852649 234.71365617 261.0303194 234.71784019 262.53211212 C234.73688269 269.58860935 234.75111575 276.64509617 234.75945216 283.70161414 C234.76922172 291.83596973 234.79553763 299.970053 234.83595306 308.10431266 C234.86615167 314.3991607 234.88092457 320.69393083 234.88423318 326.98884988 C234.88657937 330.74506748 234.89548321 334.50099385 234.92069435 338.25713348 C234.94404614 341.79325514 234.94818023 345.32889525 234.93793297 348.86507416 C234.93720487 350.7719893 234.95624593 352.67888038 234.97599792 354.58569336 C234.92797284 362.53619574 233.94720101 367.87536808 228.82658386 374.1907959 C228.29549011 374.63681152 227.76439636 375.08282715 227.21720886 375.5423584 C226.69642761 376.00384277 226.17564636 376.46532715 225.63908386 376.9407959 C219.09014764 380.63929585 211.74371998 380.4598436 204.44474792 380.4458313 C202.81128276 380.4545199 202.81128276 380.4545199 201.14481831 380.46338403 C197.50745987 380.48034621 193.87022861 380.48325732 190.23283386 380.48620605 C187.62084646 380.49550682 185.00886202 380.50567571 182.3968811 380.51664734 C176.77940913 380.53887612 171.16195523 380.55391569 165.54444885 380.56401443 C157.42257465 380.57862584 149.30076348 380.60416951 141.17892635 380.63234572 C128.00046041 380.67776906 114.82198538 380.71440227 101.64347839 380.7454834 C88.84495955 380.77568722 76.04646294 380.81004589 63.24797058 380.84997559 C62.45851854 380.85243713 61.6690665 380.85489868 60.85569167 380.85743482 C56.89507765 380.86980978 52.93446389 380.88226625 48.97385025 380.89476323 C16.13833328 380.99826426 -16.69720805 381.0874895 -49.53279114 381.1673584 C-49.62619834 389.64395644 -49.69690946 398.12033314 -49.74003983 406.59732151 C-49.7607587 410.53516103 -49.78878168 414.47264395 -49.83454895 418.41027832 C-49.87857679 422.22288869 -49.90204564 426.03515997 -49.91230011 429.84800529 C-49.91959098 431.28981795 -49.93382206 432.73161579 -49.95571136 434.17328072 C-50.22349929 452.57171839 -45.75782018 467.22603122 -33.01716614 480.84313965 C-15.43246213 497.29423853 6.63529796 496.46761912 29.15080261 496.42614746 C31.63258466 496.4288614 34.1143659 496.43242459 36.59614563 496.43676758 C42.6081314 496.44490569 48.62004775 496.44376282 54.63203073 496.4379423 C59.52288487 496.4334053 64.41372504 496.43282166 69.30458069 496.43498993 C70.00358346 496.4352964 70.70258624 496.43560286 71.42277092 496.43591861 C72.84326721 496.43655814 74.26376349 496.43720656 75.68425977 496.4378638 C88.97004189 496.44355194 102.25579631 496.43703308 115.54157388 496.42626306 C126.91426034 496.41732894 138.28690595 496.41888141 149.65959167 496.42810059 C162.90139595 496.4388301 176.143176 496.44300276 189.38498402 496.43687606 C190.79993502 496.43623903 192.21488603 496.43561029 193.62983704 496.43498993 C194.32582125 496.43468138 195.02180546 496.43437283 195.7388801 496.43405493 C200.61763848 496.43233601 205.49638135 496.43522565 210.37513733 496.43994904 C216.95472822 496.44617973 223.53425439 496.44167447 230.11384201 496.43016052 C232.52035775 496.42752889 234.92688 496.42825326 237.3333931 496.43268585 C260.43220515 496.47129084 279.88077159 495.64626719 297.72111511 479.0736084 C309.12381893 467.12997935 312.96016564 452.10937881 312.82797241 435.98052979 C312.83053569 434.81463137 312.83309896 433.64873295 312.83573991 432.44750428 C312.83979396 429.24783174 312.83054532 426.04853329 312.81540573 422.84890485 C312.80235254 419.38487162 312.80684133 415.9208533 312.80911255 412.45680237 C312.81067947 406.46721094 312.80133146 400.47771817 312.78439903 394.48815155 C312.75993419 385.82844559 312.75219614 377.16878693 312.74843506 368.50905016 C312.74188227 354.4564866 312.72195304 340.40397552 312.69352722 326.35144043 C312.66595622 312.70723736 312.64473755 299.06304858 312.63200378 285.41882324 C312.63121561 284.57665618 312.63042744 283.73448911 312.62961539 282.86680183 C312.62570005 278.64155737 312.62190898 274.4163128 312.61817968 270.19106817 C312.5871203 235.18312752 312.53431659 200.17524781 312.46720886 165.1673584 C311.81674906 165.16589184 311.16628925 165.16442528 310.49611855 165.16291428 C294.63658289 165.12579106 278.77730193 165.06670371 262.91794777 164.98345566 C255.24832962 164.94372113 247.57881324 164.91130039 239.90910339 164.8963623 C233.22072265 164.88331668 226.53256637 164.8562783 219.84431207 164.81274533 C216.30600458 164.79019543 212.76797327 164.77444379 209.22958755 164.77547455 C205.27031629 164.77636484 201.3116053 164.74600167 197.35246277 164.71325684 C196.191521 164.7182872 195.03057922 164.72331757 193.8344574 164.72850037 C185.73136294 164.625144 178.52293804 163.378144 172.02970886 158.2376709 C171.51408386 157.59571777 170.99845886 156.95376465 170.46720886 156.2923584 C169.93095886 155.65556152 169.39470886 155.01876465 168.84220886 154.3626709 C164.74182912 147.81604189 165.16187821 141.02401912 165.14836121 133.5526123 C165.13329277 131.64935181 165.13329277 131.64935181 165.11791992 129.7076416 C165.09069581 126.24117803 165.07549316 122.77475493 165.06249189 119.30821276 C165.046828 115.68067838 165.02004822 112.05322624 164.99446106 108.42575073 C164.94773083 101.5623671 164.91095894 94.6989679 164.87778819 87.8355068 C164.83952605 80.01926234 164.79012664 72.2031006 164.73980403 64.38692594 C164.63656982 48.31379621 164.54728185 32.24062055 164.46720886 16.1673584 C143.84760071 16.12052534 123.2280014 16.08531433 102.60835075 16.06373405 C93.03312776 16.05344522 83.45793792 16.0394309 73.88273621 16.01647949 C65.53173077 15.99647207 57.18074936 15.98362459 48.82972062 15.97918141 C44.41270924 15.97658642 39.99576656 15.97053757 35.57877731 15.95589828 C31.41080872 15.94219787 27.24293633 15.9381606 23.07494736 15.94114304 C21.55534337 15.94059839 20.03573575 15.93669584 18.51615143 15.92894745 C-3.19423057 15.82379212 -21.30787411 19.14287225 -36.84529114 35.4173584 Z M180.46720886 28.1673584 C180.39707079 42.53630039 180.34439678 56.90521576 180.31177235 71.2742939 C180.29611449 77.94639887 180.27487372 84.61836652 180.2408905 91.29040527 C180.20830186 97.72891241 180.19035674 104.16730893 180.18257713 110.60589218 C180.17703278 113.06268938 180.16620613 115.5194805 180.15001869 117.97623062 C180.12825154 121.41653798 180.12524171 124.85638782 180.12663269 128.29675293 C180.11584686 129.31311325 180.10506104 130.32947357 180.09394836 131.37663269 C180.11732971 136.71862826 180.39491241 140.58287001 183.46720886 145.1673584 C187.82710226 148.40933042 191.74020708 149.29377199 197.08628845 149.28761292 C198.0089299 149.28898758 198.93157135 149.29036224 199.88217163 149.29177856 C201.38944572 149.28638565 201.38944572 149.28638565 202.9271698 149.28088379 C204.52275475 149.28110283 204.52275475 149.28110283 206.15057373 149.28132629 C209.66759783 149.28062946 213.18456901 149.27284773 216.70158386 149.26501465 C219.13967357 149.26314966 221.57776366 149.26172614 224.01585388 149.26072693 C230.43395522 149.25690816 236.85203394 149.2470833 243.27012634 149.23602295 C249.81889032 149.22579509 256.36765795 149.22122636 262.91642761 149.21618652 C275.76669768 149.20546049 288.61695207 149.18858384 301.46720886 149.1673584 C296.13809937 142.70064482 290.26201338 136.82071919 284.33708191 130.90783691 C283.21447432 129.78387236 282.09207915 128.6596956 280.96987915 127.5353241 C277.93953459 124.50044348 274.90606325 121.46870677 271.87186027 118.4376843 C268.69444449 115.2628082 265.51947813 112.0854841 262.34411621 108.90855408 C257.01902364 103.5816461 251.69183424 98.25684189 246.3634491 92.93322754 C240.19596745 86.77120408 234.03211914 80.60556377 227.87011307 74.43806511 C222.57758972 69.14101268 217.28313138 63.84590022 211.98703223 58.55242294 C208.82427734 55.3912298 205.6622086 52.22935827 202.50188255 49.06573677 C199.5369452 46.09792313 196.56959605 43.13254272 193.60032082 40.16906929 C192.50816012 39.07823678 191.41686046 37.98654144 190.32646179 36.8939476 C188.84491968 35.4096967 187.36037074 33.9285226 185.87496948 32.44813538 C185.04300899 31.6165519 184.21104849 30.78496843 183.35387707 29.92818546 C181.77548148 28.05364087 181.77548148 28.05364087 180.46720886 28.1673584 Z M-22.34529114 246.9798584 C-25.85028392 250.48485118 -25.66344973 252.58575141 -25.69050598 257.44958496 C-25.6955867 258.09372849 -25.70066742 258.73787201 -25.7059021 259.40153503 C-25.71661052 260.80219407 -25.72522885 262.20287027 -25.73202133 263.60355377 C-25.7438104 265.82337875 -25.76326477 268.04300918 -25.78514099 270.26275635 C-25.8467447 276.57480351 -25.90073105 282.88683252 -25.93415833 289.19909668 C-25.95515242 293.05950814 -25.99049719 296.91956769 -26.03491592 300.77977753 C-26.04904317 302.24847 -26.05779096 303.71722477 -26.06097031 305.18598175 C-26.06590205 307.24687765 -26.08911711 309.30684736 -26.11628723 311.36755371 C-26.12437408 312.53844543 -26.13246094 313.70933716 -26.14079285 314.91571045 C-26.65927689 319.21656487 -28.10077191 322.59735815 -31.03279114 325.81188965 C-36.75511483 330.26755315 -41.43994032 330.94347581 -48.53279114 330.1673584 C-55.55937255 327.72794146 -58.90735759 322.26467845 -62.53279114 316.1673584 C-64.40243111 313.90437403 -64.40243111 313.90437403 -67.34529114 313.7298584 C-70.68658707 313.94056859 -70.68658707 313.94056859 -73.47029114 316.2298584 C-75.81011199 319.01418507 -75.81011199 319.01418507 -75.72029114 322.4173584 C-72.69286597 331.97764841 -66.14867218 338.90667344 -57.34529114 343.4798584 C-49.76460615 347.13896704 -40.83635858 347.42341312 -32.78279114 345.0423584 C-23.87786497 341.5963291 -16.3348818 334.64258715 -12.391922 325.94226074 C-9.65507996 318.82729695 -9.97494636 311.51909871 -10.03669739 304.0189209 C-10.03654212 302.47337781 -10.03504859 300.92783433 -10.0322876 299.3822937 C-10.03091138 296.16317267 -10.04333852 292.94450147 -10.0662384 289.72546387 C-10.09476529 285.60286928 -10.09183677 281.48101269 -10.07914829 277.3583622 C-10.0721947 274.17558491 -10.07997425 270.99297813 -10.09240532 267.81022263 C-10.09691287 266.28960193 -10.0972627 264.76896292 -10.09333992 263.24834061 C-10.09042705 261.1280273 -10.10693114 259.00873405 -10.1287384 256.8885498 C-10.13684288 255.08180283 -10.13684288 255.08180283 -10.14511108 253.23855591 C-10.56680381 249.89791033 -11.16359013 248.51936263 -13.53279114 246.1673584 C-17.45252742 244.80397187 -18.81404124 244.70416402 -22.34529114 246.9798584 Z M10.46720886 248.1673584 C8.81689919 251.46797774 9.29259758 255.14655679 9.27433777 258.77624512 C9.26616028 259.66744049 9.25798279 260.55863586 9.2495575 261.47683716 C9.22469208 264.43356651 9.20818612 267.39024788 9.19377136 270.3470459 C9.18844769 271.35521488 9.18312401 272.36338387 9.17763901 273.40210342 C9.15090469 278.73644501 9.13152915 284.07076315 9.11711121 289.40515137 C9.10044663 294.92254979 9.05565437 300.43935283 9.00473976 305.9565258 C8.97113464 310.19268504 8.95954126 314.42870166 8.95388412 318.66498184 C8.94715488 320.69921554 8.93188967 322.73343932 8.90799332 324.76754379 C8.87647812 327.61208863 8.87628417 330.45501003 8.88371277 333.29968262 C8.86730743 334.14242737 8.8509021 334.98517212 8.83399963 335.85345459 C8.87853872 340.01214342 8.89527403 341.56012339 11.84352112 344.69033813 C14.79575304 346.35231425 16.14963093 346.8478872 19.46720886 346.1673584 C21.71153868 344.29708355 23.16164088 342.77849436 24.46720886 340.1673584 C24.55248514 338.13503206 24.57437022 336.09988834 24.56486511 334.0657959 C24.56164246 332.85407715 24.5584198 331.6423584 24.55509949 330.3939209 C24.54672058 329.12290527 24.53834167 327.85188965 24.52970886 326.5423584 C24.52519714 325.2636084 24.52068542 323.9848584 24.51603699 322.6673584 C24.50422089 319.50064547 24.48774701 316.33402484 24.46720886 313.1673584 C25.10634216 313.18830566 25.74547546 313.20925293 26.40397644 313.23083496 C43.00525388 314.19973504 43.00525388 314.19973504 58.46720886 309.1673584 C59.18521667 308.7548584 59.90322449 308.3423584 60.64299011 307.9173584 C67.26071964 303.53046425 71.72235534 297.11224462 74.90470886 289.9173584 C76.78143745 277.40583445 75.64011296 267.68237714 68.21720886 257.3548584 C62.05242734 249.94928398 54.81499488 246.94209515 45.46720886 245.1673584 C40.33441669 244.75991708 35.23876478 244.74699209 30.09220886 244.7923584 C28.73933595 244.7816445 27.38647057 244.76993107 26.03361511 244.75720215 C24.10195496 244.76300293 24.10195496 244.76300293 22.13127136 244.7689209 C20.39031189 244.77399658 20.39031189 244.77399658 18.61418152 244.7791748 C15.14543817 245.20704928 13.25201456 246.09095151 10.46720886 248.1673584 Z M99.02970886 252.3548584 C93.06590911 260.60828684 93.01091008 269.37007695 93.03361511 279.25720215 C93.02904222 280.61044066 93.0237334 281.96367686 93.01773071 283.31690979 C93.0088449 286.14012136 93.01117045 288.96304938 93.02116394 291.78625488 C93.03264888 295.37819609 93.01242771 298.96915341 92.9832468 302.56096554 C92.96477273 305.3519548 92.96519928 308.14271309 92.97088432 310.93374825 C92.97110922 312.89331879 92.95431983 314.85286802 92.93707275 316.81236267 C93.00290998 325.31476453 93.95690426 332.81262664 99.43205261 339.6048584 C100.08302917 340.1204834 100.73400574 340.6361084 101.40470886 341.1673584 C102.0531073 341.7036084 102.70150574 342.2398584 103.36955261 342.7923584 C109.95383579 347.10831311 116.92114718 346.53960395 124.5040741 346.53796387 C126.76274181 346.54232563 129.01943465 346.57864701 131.27775574 346.61657715 C140.58234191 346.6894459 146.96650629 346.0679673 154.27970886 339.7298584 C160.91246047 331.96006366 160.65366246 325.06868607 160.6525116 315.26794434 C160.65470159 313.17431411 160.67288888 311.08120827 160.69181824 308.9876709 C160.69475196 307.65173519 160.6967369 306.31579699 160.69767761 304.9798584 C160.7017865 303.76942871 160.70589539 302.55899902 160.71012878 301.31188965 C160.47475577 298.26505109 160.25021581 296.61938929 158.46720886 294.1673584 C155.12243854 291.75889493 151.90069373 291.90950798 147.87345886 291.9017334 C146.59599792 291.89915527 145.31853699 291.89657715 144.00236511 291.8939209 C143.33994812 291.89811035 142.67753113 291.9022998 141.99504089 291.90661621 C139.97373943 291.9173238 137.95332661 291.90670444 135.93205261 291.8939209 C134.65459167 291.89649902 133.37713074 291.89907715 132.06095886 291.9017334 C130.89242371 291.90398926 129.72388855 291.90624512 128.51994324 291.90856934 C125.5697138 292.15866876 123.91956973 292.56256787 121.46720886 294.1673584 C119.56019111 296.71004874 119.46133127 298.02335732 119.59220886 301.2298584 C120.62610107 304.70078225 121.40699365 305.35751455 124.46720886 307.1673584 C126.87756248 307.57667706 126.87756248 307.57667706 129.45158386 307.46032715 C130.85343933 307.4458252 130.85343933 307.4458252 132.28361511 307.43103027 C133.25170105 307.40589355 134.21978699 307.38075684 135.21720886 307.3548584 C136.20076355 307.34132324 137.18431824 307.32778809 138.19767761 307.31384277 C140.62141301 307.27854566 143.04403032 307.22923894 145.46720886 307.1673584 C145.38636183 310.43920648 145.27352012 313.70918618 145.15470886 316.9798584 C145.13215027 317.90862793 145.10959167 318.83739746 145.08634949 319.79431152 C145.05090027 320.6869873 145.01545105 321.57966309 144.97892761 322.49938965 C144.95274353 323.32156982 144.92655945 324.14375 144.89958191 324.99084473 C144.46720886 327.1673584 144.46720886 327.1673584 143.37736511 328.9407959 C140.42586995 330.83603001 137.86499381 330.50284148 134.39299011 330.46032715 C133.36724129 330.45395988 133.36724129 330.45395988 132.32077026 330.44746399 C130.14001325 330.43069193 127.96018578 330.39304496 125.77970886 330.3548584 C124.29990452 330.33980954 122.82008566 330.32612148 121.34025574 330.31384277 C117.7156055 330.28079409 114.09149792 330.22902286 110.46720886 330.1673584 C109.45262535 326.79408907 109.32276263 323.69161005 109.29020691 320.17712402 C109.27737167 318.96907104 109.26453644 317.76101807 109.25131226 316.51635742 C109.24392532 315.21525024 109.23653839 313.91414307 109.22892761 312.5736084 C109.22485209 311.90928299 109.22077656 311.24495758 109.21657753 310.5605011 C109.19576721 307.04810909 109.18144054 303.53575563 109.17204285 300.02331543 C109.16095321 296.39822587 109.12651083 292.77374587 109.08687115 289.14887238 C109.06073315 286.35730853 109.05235389 283.56589115 109.04876137 280.7742157 C109.04152864 278.78884138 109.01508635 276.80356714 108.9883728 274.81835938 C108.99129837 273.6103064 108.99422394 272.40225342 108.99723816 271.15759277 C108.99137192 270.09488159 108.98550568 269.03217041 108.97946167 267.93725586 C109.59050068 264.46718894 110.70782661 263.29401706 113.46720886 261.1673584 C116.33634949 260.66564941 116.33634949 260.66564941 119.62345886 260.67126465 C120.81068542 260.67062012 121.99791199 260.66997559 123.22111511 260.66931152 C124.45732605 260.68929199 125.69353699 260.70927246 126.96720886 260.7298584 C128.2034198 260.72276855 129.43963074 260.71567871 130.71330261 260.70837402 C141.10157373 260.78168973 141.10157373 260.78168973 144.46720886 264.1673584 C145.17212153 266.48942365 145.83933315 268.82328908 146.46720886 271.1673584 C147.51094908 273.21186859 147.51094908 273.21186859 149.46720886 274.1673584 C152.92470835 274.83412718 152.92470835 274.83412718 156.46720886 274.1673584 C159.18456788 272.35511448 159.18456788 272.35511448 160.46720886 269.1673584 C160.93374506 262.92743676 159.02790678 258.1715825 155.46720886 253.1673584 C148.14652445 245.84667399 140.89853884 244.77577609 130.94377136 244.70837402 C129.03724792 244.71900879 129.03724792 244.71900879 127.09220886 244.7298584 C125.82892761 244.70987793 124.56564636 244.68989746 123.26408386 244.66931152 C114.20234935 244.67402136 105.5688257 245.46573273 99.02970886 252.3548584 Z " fill="#8B5BF4" transform="translate(166.5327911376953,-0.1673583984375)"/>
<path d="M0 0 C0.75000123 -0.00579339 1.50000246 -0.01158677 2.27273101 -0.01755571 C4.78131709 -0.03556723 7.28988084 -0.04647261 9.79850769 -0.05725098 C11.59905194 -0.06843074 13.39959414 -0.07994421 15.20013428 -0.09176636 C21.1081403 -0.12826314 27.01616736 -0.15353032 32.92424011 -0.1763916 C33.93003546 -0.18033747 34.9358308 -0.18428333 35.97210479 -0.18834877 C45.45979554 -0.22475471 54.94749382 -0.25619081 64.43523121 -0.27745819 C76.56305341 -0.30504814 88.69029183 -0.3558626 100.81787091 -0.43793249 C109.3505044 -0.4937181 117.8829794 -0.52269299 126.41578883 -0.5319314 C131.51020248 -0.53818784 136.60393066 -0.55630164 141.69814491 -0.60331726 C146.49104435 -0.64700717 151.28288397 -0.65746503 156.07594872 -0.64268875 C157.83193794 -0.64301719 159.58797297 -0.65527719 161.34378052 -0.68053818 C176.24964666 -0.88362347 176.24964666 -0.88362347 180.69273376 2.84416199 C181.975729 4.26316001 183.23004204 5.70823181 184.46720886 7.1673584 C185.99628422 8.71212143 187.55551734 10.22297857 189.11557215 11.73642552 C192.30418739 14.83931402 195.43484098 18.00053074 198.57829285 21.14904785 C199.99634496 22.56574328 201.41460936 23.98222625 202.83306885 25.39851379 C206.66545401 29.22635894 210.49469218 33.05733753 214.32321811 36.88904214 C218.33309898 40.9014614 222.34542656 44.91143281 226.35736084 48.92179871 C233.08644988 55.64907164 239.81343442 62.37844358 246.53923035 69.10900879 C254.3218661 76.89709936 262.10811569 84.68156302 269.89622635 92.46417838 C276.58523602 99.14865684 283.27230353 105.83507353 289.95773751 112.52312821 C293.95005217 116.5170039 297.94304427 120.51019601 301.93778801 124.50164223 C305.68699727 128.24797222 309.43376978 131.99672201 313.17864037 135.74738884 C314.55608965 137.12616485 315.9343989 138.50408233 317.31361008 139.88109589 C319.18938394 141.7541552 321.06207906 143.63023817 322.93399048 145.50715637 C323.48591723 146.05685241 324.03784399 146.60654844 324.6064958 147.17290193 C328.39351084 150.97972095 329.59075295 152.67803459 329.60142994 158.00432682 C329.60588778 159.03239352 329.61034563 160.06046023 329.61493856 161.11968046 C329.61466201 162.82696535 329.61466201 162.82696535 329.61437988 164.56874084 C329.61805657 165.77127013 329.62173326 166.97379941 329.62552136 168.21276897 C329.63466083 171.56171099 329.63926072 174.91060395 329.64191067 178.25955379 C329.64580957 181.86792889 329.65538877 185.47628974 329.66412354 189.08465576 C329.68390865 197.80923168 329.69396068 206.53380879 329.70285133 215.25840154 C329.70723438 219.37000648 329.71260147 223.48161012 329.71784019 227.59321404 C329.7348611 241.26973611 329.74935111 254.94625738 329.75658894 268.62278843 C329.75849878 272.17402205 329.76041911 275.72525566 329.76237488 279.27648926 C329.76285862 280.15911156 329.76334236 281.04173387 329.76384076 281.95110231 C329.77212527 296.22085456 329.79743153 310.49052254 329.82995556 324.76023806 C329.86309996 339.42229604 329.8810447 354.08431135 329.88423318 368.74640697 C329.8863924 376.97362067 329.89505345 385.20071181 329.92069435 393.42788887 C329.94250311 400.44172978 329.95040248 407.4554184 329.94072757 414.46928937 C329.93621091 418.04207351 329.93791277 421.6145442 329.95748901 425.18728447 C330.08447778 449.77870855 328.30549245 471.69683981 310.5287323 490.16149902 C309.18737591 491.50932646 307.82778627 492.83893644 306.46720886 494.1673584 C305.48300964 495.18249512 305.48300964 495.18249512 304.47892761 496.21813965 C298.81036498 501.69249029 291.76980232 505.32361091 284.46720886 508.1673584 C283.21779998 508.67220717 283.21779998 508.67220717 281.94315052 509.18725491 C269.46987594 513.47653135 256.65996241 512.73654972 243.62809753 512.70080566 C240.91471833 512.70568305 238.20136936 512.7164844 235.48800659 512.72691345 C228.90949665 512.74844845 222.3311604 512.74845353 215.75262686 512.74028791 C210.39982913 512.73396247 205.04708168 512.73514812 199.69428444 512.74155998 C198.92953916 512.74246164 198.16479389 512.74336329 197.37687451 512.74429227 C195.82278741 512.74614367 194.26870031 512.74800623 192.71461324 512.74987983 C178.1725804 512.76642223 163.63064485 512.75777005 149.0886179 512.74089425 C135.81866195 512.72620608 122.54893262 512.74081953 109.27900585 512.76966441 C95.61547597 512.79914102 81.95205037 512.81000634 68.28849012 512.80048221 C66.73952029 512.79945978 65.19055044 512.79846517 63.64158058 512.7974987 C62.87967986 512.79702231 62.11777914 512.79654592 61.33279052 512.7960551 C55.9955439 512.79390154 50.65839721 512.80363842 45.32117271 512.81826973 C38.80346391 512.83588965 32.28604351 512.83553892 25.76834556 512.81291807 C22.45048816 512.80186118 19.13354918 512.80117451 15.81565094 512.81721878 C-7.53811199 512.92115416 -26.61620689 510.2563373 -44.22810364 493.46032715 C-44.98865051 492.70364746 -45.74919739 491.94696777 -46.53279114 491.1673584 C-47.58079895 490.17155762 -47.58079895 490.17155762 -48.64997864 489.15563965 C-62.32379522 475.18919275 -66.01020829 457.37029512 -65.82575989 438.5657959 C-65.8201545 436.87615335 -65.81588886 435.18650588 -65.81289673 433.49685669 C-65.8015221 429.08109734 -65.77211983 424.66564088 -65.73878479 420.25 C-65.70792341 415.73160904 -65.69435728 411.21316845 -65.67927551 406.69470215 C-65.64724187 397.85210073 -65.59453563 389.00980231 -65.53279114 380.1673584 C-60.58279114 380.1673584 -55.63279114 380.1673584 -50.53279114 380.1673584 C-50.5129718 382.16556641 -50.49315247 384.16377441 -50.47273254 386.22253418 C-50.40572323 392.8363449 -50.32808535 399.4500004 -50.24526405 406.06363106 C-50.195391 410.0721302 -50.14906045 414.08060413 -50.11091614 418.0892334 C-50.07394938 421.96025601 -50.02755908 425.83106303 -49.97472763 429.70190048 C-49.95624404 431.17617879 -49.94111395 432.65050321 -49.92944717 434.12485123 C-49.91248071 436.19539557 -49.88342239 438.26545263 -49.85163879 440.33581543 C-49.83831512 441.51273956 -49.82499146 442.6896637 -49.81126404 443.9022522 C-49.52252364 447.28774524 -48.72245422 449.99648378 -47.53279114 453.1673584 C-47.26079895 454.09935059 -46.98880676 455.03134277 -46.70857239 455.99157715 C-42.68504072 469.33659394 -35.38866236 480.28545936 -23.02497864 487.21032715 C-10.38008244 493.86817698 1.15307768 495.32400821 15.21836853 495.30107117 C16.77220147 495.3044695 16.77220147 495.3044695 18.35742497 495.30793649 C21.8038619 495.31423058 25.25025904 495.31345009 28.69670105 495.31262207 C31.17789256 495.31561642 33.65908361 495.31901959 36.14027405 495.32279968 C42.16615653 495.33070117 48.19202356 495.33385311 54.21790978 495.33441206 C59.1202985 495.33488868 64.02268401 495.33695071 68.92507172 495.34011269 C82.85080479 495.34891064 96.77653019 495.35353339 110.70226607 495.35278221 C111.82631314 495.35272228 111.82631314 495.35272228 112.97306824 495.35266113 C114.09850142 495.35259981 114.09850142 495.35259981 115.24667063 495.35253725 C127.40012656 495.35213099 139.55355148 495.36169786 151.70699844 495.3757995 C164.21210205 495.39019369 176.71719057 495.39706802 189.22230268 495.39620572 C196.23250722 495.39587481 203.24267924 495.3985753 210.25287628 495.40938377 C216.84882339 495.41948911 223.44471383 495.41912246 230.04066849 495.41186714 C232.45363338 495.41082521 234.8666026 495.41316082 237.27956009 495.4192276 C260.26146322 495.47324164 279.67838806 494.7112914 297.49845886 478.29626465 C308.47528065 466.71764342 311.93638914 451.4760532 311.86593628 435.98052979 C311.87258311 434.81463137 311.87922993 433.64873295 311.88607818 432.44750428 C311.90138099 429.24787338 311.90356825 426.04855974 311.89994872 422.84890485 C311.89932042 419.38483343 311.91598618 415.92083761 311.9304657 412.45680237 C311.95317497 406.46724625 311.96512349 400.477748 311.96959496 394.48815155 C311.97607561 385.82840228 311.99904649 377.16875726 312.02593825 368.50905016 C312.06913365 354.45652829 312.0991417 340.40401083 312.12077332 326.35144043 C312.14180478 312.70721268 312.16909874 299.06302095 312.20475769 285.41882324 C312.20695652 284.57665618 312.20915534 283.73448911 312.2114208 282.86680183 C312.22249099 278.641557 312.2336837 274.41631251 312.2449373 270.19106817 C312.33801972 235.18319568 312.40966518 200.17530667 312.46720886 165.1673584 C311.81674906 165.17104557 311.16628925 165.17473274 310.49611855 165.17853165 C294.63676149 165.26703873 278.77749088 165.33314361 262.91794777 165.37460709 C255.2482425 165.39519376 247.57870253 165.42323931 239.90910339 165.46911621 C233.22083844 165.50910389 226.53269326 165.5348195 219.84431207 165.54371238 C216.30591964 165.54890709 212.76786973 165.56103388 209.22958755 165.59027863 C205.27048282 165.62273327 201.31170694 165.62331018 197.35246277 165.62145996 C196.191521 165.63584106 195.03057922 165.65022217 193.8344574 165.66503906 C185.55289597 165.62329062 178.38261106 164.33422783 171.81095886 159.0189209 C171.20252136 158.28415527 170.59408386 157.54938965 169.96720886 156.7923584 C169.33814636 156.06274902 168.70908386 155.33313965 168.06095886 154.5814209 C163.70540177 147.98403295 164.19423608 141.17817293 164.24015808 133.5526123 C164.23986603 132.28377197 164.23957397 131.01493164 164.23927307 129.7076416 C164.23870085 126.24110813 164.25043393 122.77471395 164.26442099 119.30821276 C164.27695016 115.68073266 164.27810057 112.05324913 164.2804718 108.42575073 C164.28668016 101.5623054 164.30308222 94.69892401 164.32317078 87.8355068 C164.34554987 80.01932224 164.35652826 72.20313457 164.36656165 64.38692594 C164.38744904 48.31369936 164.42261245 32.24053705 164.46720886 16.1673584 C143.84752629 16.25144714 123.22792126 16.34664923 102.60835075 16.45488548 C93.03316196 16.50489175 83.45798121 16.5513355 73.88273621 16.5892334 C65.53168552 16.62229526 57.18069959 16.66220361 48.82972062 16.71014845 C44.4127427 16.73527313 39.99580697 16.75709487 35.57877731 16.77070236 C31.4107584 16.7836513 27.2428852 16.80584006 23.07494736 16.83474159 C21.55536487 16.84371817 20.03575899 16.849484 18.51615143 16.85157204 C-2.10811539 16.88494943 -18.95103646 19.65647284 -34.56404114 34.03845215 C-41.96372811 41.84382371 -45.7677856 51.48360524 -47.98982239 61.86657715 C-48.53279114 64.1673584 -48.53279114 64.1673584 -49.53279114 65.1673584 C-49.64159578 67.06528821 -49.67968434 68.9672891 -49.69100952 70.86830139 C-49.70569275 72.72568436 -49.70569275 72.72568436 -49.72067261 74.62059021 C-49.72657756 76.00540122 -49.73238796 77.39021265 -49.7381134 78.77502441 C-49.74768657 80.22343224 -49.75769631 81.67183724 -49.76811218 83.12023926 C-49.79522823 87.06425111 -49.81620139 91.00827501 -49.83611417 94.95232892 C-49.85793255 99.06967715 -49.88534146 103.18698795 -49.91217041 107.30430603 C-49.96215357 115.10638989 -50.00707146 122.90849445 -50.05019277 130.71061891 C-50.0995172 139.59078801 -50.15445305 148.47091958 -50.20987236 157.3510524 C-50.32377871 175.6231198 -50.43039975 193.8952231 -50.53279114 212.1673584 C-55.48279114 212.1673584 -60.43279114 212.1673584 -65.53279114 212.1673584 C-65.62558373 192.05203999 -65.69687 171.9367825 -65.74003983 151.82129383 C-65.76062153 142.4802755 -65.78865767 133.13939302 -65.83454895 123.79846191 C-65.87455171 115.65219024 -65.90025583 107.50601701 -65.90914512 99.35964984 C-65.91433723 95.05044688 -65.9264478 90.7415254 -65.95571136 86.4324131 C-65.98309349 82.36696625 -65.99119072 78.30191376 -65.98522186 74.23638344 C-65.98631201 72.75343169 -65.99412923 71.27046516 -66.00961304 69.78759384 C-66.19023954 51.57830833 -60.56196546 35.69765727 -47.84138489 22.4407959 C-47.07954895 21.69056152 -46.31771301 20.94032715 -45.53279114 20.1673584 C-44.8225177 19.45837402 -44.11224426 18.74938965 -43.38044739 18.0189209 C-31.46984107 6.77599776 -16.41885883 0.04393056 0 0 Z M180.46720886 28.1673584 C180.39707079 42.53630039 180.34439678 56.90521576 180.31177235 71.2742939 C180.29611449 77.94639887 180.27487372 84.61836652 180.2408905 91.29040527 C180.20830186 97.72891241 180.19035674 104.16730893 180.18257713 110.60589218 C180.17703278 113.06268938 180.16620613 115.5194805 180.15001869 117.97623062 C180.12825154 121.41653798 180.12524171 124.85638782 180.12663269 128.29675293 C180.11584686 129.31311325 180.10506104 130.32947357 180.09394836 131.37663269 C180.11732971 136.71862826 180.39491241 140.58287001 183.46720886 145.1673584 C187.82710226 148.40933042 191.74020708 149.29377199 197.08628845 149.28761292 C198.0089299 149.28898758 198.93157135 149.29036224 199.88217163 149.29177856 C201.38944572 149.28638565 201.38944572 149.28638565 202.9271698 149.28088379 C204.52275475 149.28110283 204.52275475 149.28110283 206.15057373 149.28132629 C209.66759783 149.28062946 213.18456901 149.27284773 216.70158386 149.26501465 C219.13967357 149.26314966 221.57776366 149.26172614 224.01585388 149.26072693 C230.43395522 149.25690816 236.85203394 149.2470833 243.27012634 149.23602295 C249.81889032 149.22579509 256.36765795 149.22122636 262.91642761 149.21618652 C275.76669768 149.20546049 288.61695207 149.18858384 301.46720886 149.1673584 C296.13809937 142.70064482 290.26201338 136.82071919 284.33708191 130.90783691 C283.21447432 129.78387236 282.09207915 128.6596956 280.96987915 127.5353241 C277.93953459 124.50044348 274.90606325 121.46870677 271.87186027 118.4376843 C268.69444449 115.2628082 265.51947813 112.0854841 262.34411621 108.90855408 C257.01902364 103.5816461 251.69183424 98.25684189 246.3634491 92.93322754 C240.19596745 86.77120408 234.03211914 80.60556377 227.87011307 74.43806511 C222.57758972 69.14101268 217.28313138 63.84590022 211.98703223 58.55242294 C208.82427734 55.3912298 205.6622086 52.22935827 202.50188255 49.06573677 C199.5369452 46.09792313 196.56959605 43.13254272 193.60032082 40.16906929 C192.50816012 39.07823678 191.41686046 37.98654144 190.32646179 36.8939476 C188.84491968 35.4096967 187.36037074 33.9285226 185.87496948 32.44813538 C185.04300899 31.6165519 184.21104849 30.78496843 183.35387707 29.92818546 C181.77548148 28.05364087 181.77548148 28.05364087 180.46720886 28.1673584 Z " fill="#C5C2C7" transform="translate(166.5327911376953,-0.1673583984375)"/>
<path d="M0 0 C3.3 -0.061875 6.6 -0.12375 10 -0.1875 C11.53527344 -0.22846802 11.53527344 -0.22846802 13.1015625 -0.27026367 C19.84536996 -0.33094228 25.67495611 0.22387227 31.05859375 4.71875 C31.74115234 5.60046875 31.74115234 5.60046875 32.4375 6.5 C32.91058594 7.0878125 33.38367188 7.675625 33.87109375 8.28125 C37.1124684 13.21621487 36.40493289 19.3459371 36 25 C34.29108911 30.22167216 31.42170415 32.81637302 27 36 C23.4250554 37.70643333 20.64707501 38.24148626 16.69921875 38.1953125 C15.37796997 38.18781982 15.37796997 38.18781982 14.0300293 38.18017578 C12.37547729 38.15286377 12.37547729 38.15286377 10.6875 38.125 C7.160625 38.08375 3.63375 38.0425 0 38 C0 25.46 0 12.92 0 0 Z " fill="#8A5AF3" transform="translate(191,260)"/>
<path d="M0 0 C0.66 0.33 1.32 0.66 2 1 C-1.3 4.3 -4.6 7.6 -8 11 C-8 6.67750434 -5.85084926 5.11604454 -3 2 C-2.01 1.34 -1.02 0.68 0 0 Z " fill="#8953E3" transform="translate(27,213)"/>
</svg>
