<svg width="49" height="51" viewBox="0 0 49 51" fill="none" xmlns="http://www.w3.org/2000/svg">
<rect x="4" y="3" width="40" height="40" rx="20" fill="#434CE7"/>
<rect x="2.75" y="1.75" width="42.5" height="42.5" rx="21.25" stroke="#434CE7" stroke-opacity="0.3" stroke-width="2.5"/>
<g filter="url(#filter0_d_74_5)">
<rect opacity="0.5" width="12.8075" height="12.8075" rx="2.35294" transform="matrix(0.965916 -0.258855 -0.258855 0.965916 20.7903 20.041)" fill="white"/>
<rect width="12.8075" height="12.8075" rx="2.35294" transform="matrix(0.965916 -0.258855 -0.258855 0.965916 17.6533 16.9033)" fill="url(#paint0_linear_74_5)"/>
</g>
<g filter="url(#filter1_d_74_5)">
<g clip-path="url(#clip0_74_5)">
<path d="M45.4 47C30.6 52.6 14.9 46 8.90002 42L10.4 45.5C13.6 53.9 26.7334 54.6667 32.9 54C36.1 54.8 41.2334 51.6667 43.4 50L45.4 47Z" fill="#2D35C6"/>
<path d="M45.4 47C30.6 52.6 14.9 46 8.90002 42L10.4 45.5C13.6 53.9 26.7334 54.6667 32.9 54C36.1 54.8 41.2334 51.6667 43.4 50L45.4 47Z" fill="#2D35C6"/>
</g>
<rect x="4.90002" y="3.5" width="39" height="39" rx="19.5" stroke="#3C45D7" shape-rendering="crispEdges"/>
</g>
<defs>
<filter id="filter0_d_74_5" x="11.75" y="14" width="24" height="24" filterUnits="userSpaceOnUse" color-interpolation-filters="sRGB">
<feFlood flood-opacity="0" result="BackgroundImageFix"/>
<feColorMatrix in="SourceAlpha" type="matrix" values="0 0 0 0 0 0 0 0 0 0 0 0 0 0 0 0 0 0 127 0" result="hardAlpha"/>
<feOffset dy="3"/>
<feGaussianBlur stdDeviation="1.5"/>
<feComposite in2="hardAlpha" operator="out"/>
<feColorMatrix type="matrix" values="0 0 0 0 0 0 0 0 0 0 0 0 0 0 0 0 0 0 0.25 0"/>
<feBlend mode="normal" in2="BackgroundImageFix" result="effect1_dropShadow_74_5"/>
<feBlend mode="normal" in="SourceGraphic" in2="effect1_dropShadow_74_5" result="shape"/>
</filter>
<filter id="filter1_d_74_5" x="0.400024" y="3" width="48" height="48" filterUnits="userSpaceOnUse" color-interpolation-filters="sRGB">
<feFlood flood-opacity="0" result="BackgroundImageFix"/>
<feColorMatrix in="SourceAlpha" type="matrix" values="0 0 0 0 0 0 0 0 0 0 0 0 0 0 0 0 0 0 127 0" result="hardAlpha"/>
<feOffset dy="4"/>
<feGaussianBlur stdDeviation="2"/>
<feComposite in2="hardAlpha" operator="out"/>
<feColorMatrix type="matrix" values="0 0 0 0 0 0 0 0 0 0 0 0 0 0 0 0 0 0 0.25 0"/>
<feBlend mode="normal" in2="BackgroundImageFix" result="effect1_dropShadow_74_5"/>
<feBlend mode="normal" in="SourceGraphic" in2="effect1_dropShadow_74_5" result="shape"/>
</filter>
<linearGradient id="paint0_linear_74_5" x1="6.40376" y1="0" x2="6.40376" y2="12.8075" gradientUnits="userSpaceOnUse">
<stop stop-color="#CDCFFF"/>
<stop offset="1" stop-color="#DCDEFF"/>
</linearGradient>
<clipPath id="clip0_74_5">
<rect x="4.40002" y="3" width="40" height="40" rx="20" fill="white"/>
</clipPath>
</defs>
</svg>
