<svg width="140" height="120" viewBox="0 0 140 120" fill="none" xmlns="http://www.w3.org/2000/svg">
<rect width="91.7978" height="91.7978" fill="#F3F3F3"/>
<path d="M44.0955 29.9428C44.0144 29.9428 43.9333 29.9256 43.8555 29.8878C42.9244 29.4412 42.0194 29.4412 41.0889 29.8878C40.8117 30.0211 40.4806 29.9039 40.3478 29.6273C40.215 29.3506 40.3317 29.0189 40.6083 28.8862C41.8456 28.2928 43.0994 28.2928 44.3366 28.8862C44.6133 29.0189 44.73 29.3506 44.5972 29.6273C44.5011 29.8267 44.3022 29.9428 44.0955 29.9428Z" fill="black"/>
<path d="M47.0227 29.9427C46.8155 29.9427 46.6172 29.8266 46.5216 29.6277C46.3888 29.3511 46.5055 29.0194 46.7822 28.8866C48.0194 28.2933 49.2733 28.2933 50.5105 28.8866C50.7871 29.0194 50.9038 29.3511 50.771 29.6277C50.6382 29.9039 50.3082 30.0211 50.0299 29.8883C49.0988 29.4411 48.1938 29.4416 47.2633 29.8883C47.185 29.925 47.1027 29.9427 47.0227 29.9427Z" fill="black"/>
<path d="M45.694 37.1853C44.8446 37.1853 43.9962 36.7842 43.1729 35.982C42.9529 35.7681 42.9485 35.4159 43.1624 35.1964C43.3762 34.977 43.7279 34.972 43.9479 35.1859C45.1529 36.3603 46.2334 36.3597 47.4479 35.1848C47.6684 34.9714 48.0201 34.9775 48.2334 35.1975C48.4467 35.4181 48.4406 35.7697 48.2206 35.9831C47.3934 36.7847 46.5429 37.1853 45.694 37.1853Z" fill="black"/>
<path d="M56.3003 42.8788L55.8297 42.7927V34.1501V25.3318C55.8297 19.7452 51.2848 15.1997 45.6976 15.1997C40.1105 15.1997 35.5655 19.7452 35.5655 25.3318V34.1506V42.7933L35.095 42.8794C32.8506 43.2894 31.2217 45.2433 31.2217 47.5243V63.3925C31.2217 64.3892 32.0322 65.1997 33.0289 65.1997H58.3669C59.3636 65.1997 60.1741 64.3892 60.1741 63.3925V47.5243C60.1741 45.2427 58.5447 43.2894 56.3003 42.8788ZM54.8786 46.936H53.1231C53.0109 46.936 52.902 46.9705 52.8092 47.0332C51.0498 48.2393 49.8887 48.9593 48.5443 49.7932C48.1193 50.0571 47.6759 50.3321 47.1887 50.6382L51.3203 42.9216C51.637 43.0872 51.9764 43.2177 52.3431 43.285L53.612 43.5166L54.8786 46.936ZM45.6976 51.0688L40.976 42.2505C41.5532 41.6616 41.9221 40.8839 41.9932 40.0244C42.6521 40.4561 43.3638 40.8194 44.1232 41.0939C44.631 41.2772 45.1643 41.3689 45.6976 41.3689C46.231 41.3689 46.7643 41.2772 47.2721 41.0939C48.0298 40.82 48.7393 40.4583 49.4026 40.025C49.4737 40.8844 49.8426 41.6611 50.4192 42.25L45.6976 51.0688ZM37.7838 43.5166L39.0527 43.285C39.4199 43.2177 39.7588 43.0872 40.0755 42.9216L44.2065 50.6376C43.7199 50.3321 43.2765 50.0571 42.8521 49.7932C41.5077 48.9593 40.346 48.2388 38.5866 47.0327C38.4938 46.9699 38.3844 46.9355 38.2727 46.9355H36.5166L37.7838 43.5166ZM50.2354 37.9383C49.2815 38.8822 48.1576 39.5922 46.8943 40.0483C46.1226 40.3272 45.2721 40.3267 44.5004 40.0483C41.1321 38.8311 38.7627 35.7384 38.4638 32.169L38.0766 27.5407C43.161 26.8129 46.4043 25.6757 48.4259 23.9046C49.8515 25.514 51.2065 26.5729 53.302 27.7257L52.9303 32.169C52.842 33.2234 52.5753 34.2456 52.1381 35.2073C51.9081 35.7128 51.6298 36.2023 51.3098 36.6606C50.9915 37.1184 50.6298 37.5483 50.2354 37.9383ZM36.6766 34.1501V25.3318C36.6766 20.3574 40.7232 16.3108 45.6976 16.3108C50.672 16.3108 54.7186 20.3574 54.7186 25.3318V34.1506V42.5905L52.5426 42.1927C51.3515 41.975 50.487 40.9378 50.487 39.7272V39.2C50.6654 39.0461 50.8476 38.8967 51.0165 38.7294C51.4592 38.2917 51.8642 37.81 52.222 37.2972C52.5809 36.7834 52.8925 36.235 53.1503 35.6684C53.6409 34.5906 53.9392 33.4451 54.0381 32.2634L54.4403 27.4585C54.4586 27.2379 54.3448 27.0274 54.1498 26.9224C51.8131 25.6707 50.4376 24.5774 48.8931 22.7457C48.792 22.6263 48.6459 22.5546 48.4893 22.5491C48.3332 22.5463 48.182 22.603 48.072 22.7141C46.2154 24.6002 42.9254 25.7718 37.4061 26.5135C37.1127 26.5529 36.9016 26.8151 36.9266 27.1107L37.3577 32.2629C37.5861 34.9945 38.8983 37.4761 40.9093 39.2106V39.7272C40.9093 40.9383 40.0449 41.975 38.8538 42.1927L36.6777 42.5905V34.1501H36.6766ZM32.3322 63.3919V47.5243C32.3322 45.7794 33.5778 44.2861 35.2944 43.9716L36.5127 43.7488L35.1972 47.2982C35.1339 47.4688 35.1583 47.6593 35.2622 47.8088C35.3661 47.9582 35.5366 48.0471 35.7183 48.0471H38.1005C39.8021 49.2093 40.9466 49.9193 42.2666 50.7382C43.0871 51.2471 43.9888 51.8071 45.1276 52.5398V64.0881H37.8888V54.7043H36.7777V64.0881H33.0289C32.6444 64.0881 32.3322 63.7758 32.3322 63.3919ZM59.063 63.3919C59.063 63.7753 58.7503 64.0881 58.3669 64.0881H54.6181V54.7043H53.507V64.0881H46.2387V52.5582C47.3926 51.816 48.302 51.2504 49.1304 50.7376C50.4498 49.9188 51.5942 49.2093 53.2953 48.0471H55.6775C55.8592 48.0471 56.0297 47.9582 56.1336 47.8088C56.2375 47.6593 56.2614 47.4688 56.1981 47.2982L54.8825 43.7488L56.1003 43.9716C57.8169 44.2855 59.0625 45.7794 59.0625 47.5243L59.063 63.3919Z" fill="black"/>
<path d="M105.669 48.9219V48.1804L107.963 45.8038C108.208 45.5456 108.409 45.3194 108.568 45.1252C108.729 44.9288 108.85 44.7423 108.929 44.5658C109.009 44.3892 109.048 44.2017 109.048 44.0031C109.048 43.778 108.995 43.5838 108.889 43.4205C108.783 43.255 108.639 43.1281 108.456 43.0398C108.273 42.9494 108.066 42.9041 107.837 42.9041C107.594 42.9041 107.382 42.9538 107.201 43.0531C107.02 43.1524 106.881 43.2925 106.784 43.4735C106.687 43.6544 106.639 43.8663 106.639 44.109H105.662C105.662 43.6963 105.757 43.3355 105.947 43.0266C106.137 42.7176 106.397 42.4782 106.728 42.3083C107.059 42.1362 107.435 42.0501 107.857 42.0501C108.283 42.0501 108.658 42.1351 108.982 42.305C109.309 42.4727 109.564 42.7022 109.747 42.9935C109.93 43.2826 110.021 43.6092 110.021 43.9733C110.021 44.2248 109.974 44.4709 109.879 44.7114C109.786 44.952 109.624 45.2201 109.393 45.5158C109.161 45.8093 108.839 46.1657 108.426 46.5849L107.079 47.995V48.0447H110.131V48.9219H105.669ZM113.752 49.0146C113.45 49.0101 113.152 48.955 112.858 48.8491C112.567 48.7431 112.302 48.5666 112.064 48.3194C111.825 48.0723 111.635 47.7402 111.491 47.3231C111.35 46.906 111.279 46.3852 111.279 45.7607C111.279 45.1693 111.338 44.6441 111.455 44.1851C111.574 43.7261 111.745 43.3388 111.968 43.0233C112.191 42.7055 112.46 42.4639 112.775 42.2984C113.091 42.1329 113.445 42.0501 113.838 42.0501C114.242 42.0501 114.6 42.1296 114.914 42.2884C115.227 42.4473 115.481 42.6669 115.675 42.9471C115.872 43.2274 115.996 43.5463 116.049 43.9038H115.04C114.971 43.6213 114.835 43.3907 114.632 43.212C114.429 43.0332 114.165 42.9438 113.838 42.9438C113.341 42.9438 112.954 43.1601 112.676 43.5926C112.4 44.0251 112.261 44.6265 112.259 45.3966H112.309C112.426 45.2046 112.569 45.0413 112.739 44.9067C112.911 44.7699 113.103 44.6651 113.315 44.5923C113.529 44.5172 113.754 44.4797 113.99 44.4797C114.383 44.4797 114.738 44.5757 115.056 44.7677C115.376 44.9575 115.631 45.2201 115.821 45.5555C116.011 45.8909 116.105 46.2749 116.105 46.7074C116.105 47.1399 116.007 47.5316 115.811 47.8825C115.617 48.2334 115.343 48.5114 114.99 48.7166C114.637 48.9197 114.224 49.019 113.752 49.0146ZM113.749 48.1539C114.009 48.1539 114.242 48.0899 114.447 47.9619C114.652 47.834 114.814 47.6618 114.934 47.4456C115.053 47.2293 115.112 46.9877 115.112 46.7207C115.112 46.4603 115.054 46.223 114.937 46.009C114.822 45.7949 114.663 45.625 114.46 45.4992C114.259 45.3735 114.03 45.3106 113.772 45.3106C113.575 45.3106 113.393 45.3481 113.226 45.4231C113.06 45.4981 112.914 45.6018 112.789 45.7343C112.663 45.8667 112.564 46.0189 112.491 46.191C112.42 46.361 112.385 46.5408 112.385 46.7306C112.385 46.9844 112.443 47.2194 112.56 47.4356C112.679 47.6519 112.842 47.8262 113.047 47.9586C113.254 48.0888 113.488 48.1539 113.749 48.1539ZM117.169 47.5978V46.7703L120.098 42.1428H120.75V43.3609H120.337L118.241 46.6776V46.7306H122.256V47.5978H117.169ZM120.383 48.9219V47.3463L120.39 46.9689V42.1428H121.359V48.9219H120.383ZM125.89 50.8285V43.8376H126.857V44.6618H126.939C126.997 44.5559 127.08 44.4334 127.188 44.2944C127.296 44.1553 127.446 44.034 127.638 43.9302C127.83 43.8243 128.084 43.7714 128.399 43.7714C128.81 43.7714 129.176 43.8751 129.498 44.0825C129.82 44.2899 130.073 44.589 130.256 44.9795C130.441 45.3701 130.534 45.8402 130.534 46.3897C130.534 46.9391 130.443 47.4103 130.259 47.8031C130.076 48.1937 129.825 48.4949 129.505 48.7067C129.185 48.9164 128.82 49.0212 128.409 49.0212C128.1 49.0212 127.847 48.9693 127.651 48.8656C127.457 48.7619 127.305 48.6405 127.194 48.5015C127.084 48.3625 126.999 48.2389 126.939 48.1308H126.88V50.8285H125.89ZM126.86 46.3797C126.86 46.7372 126.912 47.0506 127.016 47.3198C127.119 47.589 127.269 47.7998 127.466 47.952C127.662 48.1021 127.903 48.1771 128.187 48.1771C128.483 48.1771 128.73 48.0988 128.929 47.9421C129.127 47.7832 129.277 47.568 129.379 47.2966C129.483 47.0252 129.534 46.7196 129.534 46.3797C129.534 46.0443 129.484 45.7431 129.382 45.4761C129.283 45.209 129.133 44.9983 128.932 44.8438C128.733 44.6894 128.485 44.6121 128.187 44.6121C127.9 44.6121 127.658 44.6861 127.459 44.8339C127.263 44.9818 127.114 45.1881 127.012 45.4529C126.911 45.7177 126.86 46.0266 126.86 46.3797ZM132.224 43.8376L133.346 45.817L134.478 43.8376H135.561L133.975 46.3797L135.574 48.9219H134.491L133.346 47.0219L132.204 48.9219H131.118L132.701 46.3797L131.138 43.8376H132.224Z" fill="#0A1215"/>
<path d="M94.3682 0.732422H98.7745V91.4286H94.3682" stroke="black" stroke-width="0.332901"/>
<path d="M29.2937 114.28V113.539L31.5876 111.162C31.8325 110.904 32.0345 110.678 32.1933 110.484C32.3544 110.287 32.4747 110.101 32.5541 109.924C32.6336 109.748 32.6733 109.56 32.6733 109.361C32.6733 109.136 32.6203 108.942 32.5144 108.779C32.4085 108.613 32.264 108.486 32.0808 108.398C31.8976 108.308 31.6913 108.263 31.4618 108.263C31.2191 108.263 31.0072 108.312 30.8263 108.411C30.6453 108.511 30.5063 108.651 30.4092 108.832C30.3121 109.013 30.2635 109.225 30.2635 109.467H29.2871C29.2871 109.055 29.382 108.694 29.5717 108.385C29.7615 108.076 30.0219 107.837 30.3529 107.667C30.6839 107.495 31.0602 107.409 31.4817 107.409C31.9076 107.409 32.2827 107.493 32.6071 107.663C32.9337 107.831 33.1886 108.061 33.3717 108.352C33.5549 108.641 33.6465 108.968 33.6465 109.332C33.6465 109.583 33.599 109.829 33.5041 110.07C33.4115 110.31 33.2493 110.578 33.0176 110.874C32.7858 111.168 32.4637 111.524 32.051 111.943L30.7038 113.353V113.403H33.7557V114.28H29.2937ZM37.3769 114.373C37.0746 114.369 36.7767 114.313 36.4832 114.207C36.1919 114.102 35.9271 113.925 35.6888 113.678C35.4505 113.431 35.2596 113.099 35.1162 112.681C34.9749 112.264 34.9043 111.744 34.9043 111.119C34.9043 110.528 34.9628 110.003 35.0797 109.544C35.1989 109.085 35.3699 108.697 35.5928 108.382C35.8157 108.064 36.0849 107.822 36.4005 107.657C36.716 107.491 37.0702 107.409 37.463 107.409C37.8668 107.409 38.2254 107.488 38.5388 107.647C38.8521 107.806 39.1059 108.025 39.3001 108.306C39.4965 108.586 39.6212 108.905 39.6742 109.262H38.6646C38.5962 108.98 38.4605 108.749 38.2574 108.57C38.0544 108.392 37.7896 108.302 37.463 108.302C36.9665 108.302 36.5792 108.518 36.3012 108.951C36.0253 109.384 35.8863 109.985 35.8841 110.755H35.9337C36.0507 110.563 36.1941 110.4 36.3641 110.265C36.5362 110.128 36.7282 110.023 36.94 109.951C37.1541 109.876 37.3792 109.838 37.6153 109.838C38.0081 109.838 38.3634 109.934 38.6811 110.126C39.0011 110.316 39.256 110.578 39.4458 110.914C39.6355 111.249 39.7304 111.633 39.7304 112.066C39.7304 112.498 39.6322 112.89 39.4358 113.241C39.2416 113.592 38.968 113.87 38.6149 114.075C38.2618 114.278 37.8492 114.377 37.3769 114.373ZM37.3736 113.512C37.634 113.512 37.8668 113.448 38.0721 113.32C38.2773 113.192 38.4395 113.02 38.5587 112.804C38.6778 112.588 38.7374 112.346 38.7374 112.079C38.7374 111.819 38.6789 111.581 38.562 111.367C38.4472 111.153 38.2883 110.983 38.0853 110.858C37.8845 110.732 37.655 110.669 37.3968 110.669C37.2004 110.669 37.0184 110.706 36.8506 110.782C36.6851 110.857 36.5395 110.96 36.4137 111.093C36.2879 111.225 36.1886 111.377 36.1158 111.549C36.0452 111.719 36.0099 111.899 36.0099 112.089C36.0099 112.343 36.0684 112.578 36.1853 112.794C36.3045 113.01 36.4667 113.185 36.6719 113.317C36.8793 113.447 37.1132 113.512 37.3736 113.512ZM40.7938 112.956V112.129L43.7232 107.501H44.3753V108.719H43.9616L41.8663 112.036V112.089H45.8814V112.956H40.7938ZM44.0079 114.28V112.705L44.0145 112.327V107.501H44.9844V114.28H44.0079ZM49.5151 116.187V109.196H50.4816V110.02H50.5644C50.6218 109.914 50.7045 109.792 50.8126 109.653C50.9208 109.514 51.0708 109.392 51.2628 109.289C51.4548 109.183 51.7086 109.13 52.0241 109.13C52.4346 109.13 52.8009 109.233 53.1231 109.441C53.4453 109.648 53.6979 109.947 53.8811 110.338C54.0665 110.729 54.1591 111.199 54.1591 111.748C54.1591 112.298 54.0676 112.769 53.8844 113.161C53.7012 113.552 53.4497 113.853 53.1297 114.065C52.8097 114.275 52.4445 114.38 52.0341 114.38C51.7251 114.38 51.4724 114.328 51.276 114.224C51.0819 114.12 50.9296 113.999 50.8193 113.86C50.7089 113.721 50.624 113.597 50.5644 113.489H50.5048V116.187H49.5151ZM50.4849 111.738C50.4849 112.096 50.5368 112.409 50.6405 112.678C50.7442 112.947 50.8943 113.158 51.0907 113.31C51.2871 113.46 51.5276 113.536 51.8123 113.536C52.108 113.536 52.3551 113.457 52.5537 113.3C52.7524 113.142 52.9024 112.926 53.0039 112.655C53.1076 112.384 53.1595 112.078 53.1595 111.738C53.1595 111.403 53.1087 111.101 53.0072 110.834C52.9079 110.567 52.7579 110.357 52.5571 110.202C52.3585 110.048 52.1102 109.971 51.8123 109.971C51.5254 109.971 51.2827 110.044 51.0841 110.192C50.8877 110.34 50.7387 110.546 50.6372 110.811C50.5357 111.076 50.4849 111.385 50.4849 111.738ZM55.8489 109.196L56.9711 111.175L58.1031 109.196H59.1855L57.6 111.738L59.1988 114.28H58.1164L56.9711 112.38L55.8291 114.28H54.7434L56.3256 111.738L54.7632 109.196H55.8489Z" fill="#0A1215"/>
<path d="M91.4307 94.7346L91.4307 99.1409L0.734468 99.1409L0.734468 94.7346" stroke="black" stroke-width="0.332901"/>
</svg>
