<svg width="140" height="120" viewBox="0 0 140 120" fill="none" xmlns="http://www.w3.org/2000/svg">
<rect width="91.7978" height="91.7978" fill="#F3F3F3"/>
<path d="M105.67 48.9219V48.1804L107.964 45.8038C108.209 45.5456 108.41 45.3194 108.569 45.1252C108.73 44.9288 108.851 44.7423 108.93 44.5658C109.01 44.3892 109.049 44.2017 109.049 44.0031C109.049 43.778 108.996 43.5838 108.89 43.4205C108.784 43.255 108.64 43.1281 108.457 43.0398C108.274 42.9494 108.067 42.9041 107.838 42.9041C107.595 42.9041 107.383 42.9538 107.202 43.0531C107.021 43.1524 106.882 43.2925 106.785 43.4735C106.688 43.6544 106.64 43.8663 106.64 44.109H105.663C105.663 43.6963 105.758 43.3355 105.948 43.0266C106.137 42.7176 106.398 42.4782 106.729 42.3083C107.06 42.1362 107.436 42.0501 107.858 42.0501C108.284 42.0501 108.659 42.1351 108.983 42.305C109.31 42.4727 109.565 42.7022 109.748 42.9935C109.931 43.2826 110.022 43.6092 110.022 43.9733C110.022 44.2248 109.975 44.4709 109.88 44.7114C109.787 44.952 109.625 45.2201 109.394 45.5158C109.162 45.8093 108.84 46.1657 108.427 46.5849L107.08 47.995V48.0447H110.132V48.9219H105.67ZM113.753 49.0146C113.451 49.0101 113.153 48.955 112.859 48.8491C112.568 48.7431 112.303 48.5666 112.065 48.3194C111.826 48.0723 111.636 47.7402 111.492 47.3231C111.351 46.906 111.28 46.3852 111.28 45.7607C111.28 45.1693 111.339 44.6441 111.456 44.1851C111.575 43.7261 111.746 43.3388 111.969 43.0233C112.192 42.7055 112.461 42.4639 112.776 42.2984C113.092 42.1329 113.446 42.0501 113.839 42.0501C114.243 42.0501 114.601 42.1296 114.915 42.2884C115.228 42.4473 115.482 42.6669 115.676 42.9471C115.872 43.2274 115.997 43.5463 116.05 43.9038H115.041C114.972 43.6213 114.836 43.3907 114.633 43.212C114.43 43.0332 114.166 42.9438 113.839 42.9438C113.342 42.9438 112.955 43.1601 112.677 43.5926C112.401 44.0251 112.262 44.6265 112.26 45.3966H112.31C112.427 45.2046 112.57 45.0413 112.74 44.9067C112.912 44.7699 113.104 44.6651 113.316 44.5923C113.53 44.5172 113.755 44.4797 113.991 44.4797C114.384 44.4797 114.739 44.5757 115.057 44.7677C115.377 44.9575 115.632 45.2201 115.822 45.5555C116.012 45.8909 116.106 46.2749 116.106 46.7074C116.106 47.1399 116.008 47.5316 115.812 47.8825C115.618 48.2334 115.344 48.5114 114.991 48.7166C114.638 48.9197 114.225 49.019 113.753 49.0146ZM113.75 48.1539C114.01 48.1539 114.243 48.0899 114.448 47.9619C114.653 47.834 114.815 47.6618 114.935 47.4456C115.054 47.2293 115.113 46.9877 115.113 46.7207C115.113 46.4603 115.055 46.223 114.938 46.009C114.823 45.7949 114.664 45.625 114.461 45.4992C114.26 45.3735 114.031 45.3106 113.773 45.3106C113.576 45.3106 113.394 45.3481 113.227 45.4231C113.061 45.4981 112.915 45.6018 112.79 45.7343C112.664 45.8667 112.565 46.0189 112.492 46.191C112.421 46.361 112.386 46.5408 112.386 46.7306C112.386 46.9844 112.444 47.2194 112.561 47.4356C112.68 47.6519 112.843 47.8262 113.048 47.9586C113.255 48.0888 113.489 48.1539 113.75 48.1539ZM117.17 47.5978V46.7703L120.099 42.1428H120.751V43.3609H120.338L118.242 46.6776V46.7306H122.257V47.5978H117.17ZM120.384 48.9219V47.3463L120.39 46.9689V42.1428H121.36V48.9219H120.384ZM125.891 50.8285V43.8376H126.858V44.6618H126.94C126.998 44.5559 127.08 44.4334 127.189 44.2944C127.297 44.1553 127.447 44.034 127.639 43.9302C127.831 43.8243 128.085 43.7714 128.4 43.7714C128.811 43.7714 129.177 43.8751 129.499 44.0825C129.821 44.2899 130.074 44.589 130.257 44.9795C130.442 45.3701 130.535 45.8402 130.535 46.3897C130.535 46.9391 130.444 47.4103 130.26 47.8031C130.077 48.1937 129.826 48.4949 129.506 48.7067C129.186 48.9164 128.82 49.0212 128.41 49.0212C128.101 49.0212 127.848 48.9693 127.652 48.8656C127.458 48.7619 127.306 48.6405 127.195 48.5015C127.085 48.3625 127 48.2389 126.94 48.1308H126.881V50.8285H125.891ZM126.861 46.3797C126.861 46.7372 126.913 47.0506 127.016 47.3198C127.12 47.589 127.27 47.7998 127.467 47.952C127.663 48.1021 127.904 48.1771 128.188 48.1771C128.484 48.1771 128.731 48.0988 128.93 47.9421C129.128 47.7832 129.278 47.568 129.38 47.2966C129.484 47.0252 129.535 46.7196 129.535 46.3797C129.535 46.0443 129.485 45.7431 129.383 45.4761C129.284 45.209 129.134 44.9983 128.933 44.8438C128.734 44.6894 128.486 44.6121 128.188 44.6121C127.901 44.6121 127.659 44.6861 127.46 44.8339C127.264 44.9818 127.115 45.1881 127.013 45.4529C126.912 45.7177 126.861 46.0266 126.861 46.3797ZM132.225 43.8376L133.347 45.817L134.479 43.8376H135.562L133.976 46.3797L135.575 48.9219H134.492L133.347 47.0219L132.205 48.9219H131.119L132.702 46.3797L131.139 43.8376H132.225Z" fill="#0A1215"/>
<path d="M94.3691 0.732422H98.7754V91.4286H94.3691" stroke="black" stroke-width="0.332901"/>
<path d="M29.2947 114.28V113.539L31.5886 111.162C31.8335 110.904 32.0354 110.678 32.1943 110.484C32.3554 110.287 32.4757 110.101 32.5551 109.924C32.6346 109.748 32.6743 109.56 32.6743 109.361C32.6743 109.136 32.6213 108.942 32.5154 108.779C32.4095 108.613 32.2649 108.486 32.0818 108.398C31.8986 108.308 31.6923 108.263 31.4628 108.263C31.22 108.263 31.0082 108.312 30.8272 108.411C30.6463 108.511 30.5073 108.651 30.4102 108.832C30.3131 109.013 30.2645 109.225 30.2645 109.467H29.288C29.288 109.055 29.3829 108.694 29.5727 108.385C29.7625 108.076 30.0229 107.837 30.3539 107.667C30.6849 107.495 31.0612 107.409 31.4826 107.409C31.9085 107.409 32.2837 107.493 32.6081 107.663C32.9347 107.831 33.1895 108.061 33.3727 108.352C33.5559 108.641 33.6474 108.968 33.6474 109.332C33.6474 109.583 33.6 109.829 33.5051 110.07C33.4124 110.31 33.2502 110.578 33.0185 110.874C32.7868 111.168 32.4646 111.524 32.052 111.943L30.7048 113.353V113.403H33.7567V114.28H29.2947ZM37.3779 114.373C37.0756 114.369 36.7777 114.313 36.4842 114.207C36.1929 114.102 35.9281 113.925 35.6898 113.678C35.4514 113.431 35.2606 113.099 35.1171 112.681C34.9759 112.264 34.9053 111.744 34.9053 111.119C34.9053 110.528 34.9638 110.003 35.0807 109.544C35.1999 109.085 35.3709 108.697 35.5938 108.382C35.8167 108.064 36.0859 107.822 36.4014 107.657C36.717 107.491 37.0712 107.409 37.464 107.409C37.8678 107.409 38.2264 107.488 38.5398 107.647C38.8531 107.806 39.1069 108.025 39.3011 108.306C39.4975 108.586 39.6222 108.905 39.6751 109.262H38.6656C38.5971 108.98 38.4614 108.749 38.2584 108.57C38.0554 108.392 37.7906 108.302 37.464 108.302C36.9675 108.302 36.5802 108.518 36.3021 108.951C36.0263 109.384 35.8873 109.985 35.8851 110.755H35.9347C36.0517 110.563 36.1951 110.4 36.365 110.265C36.5372 110.128 36.7291 110.023 36.941 109.951C37.155 109.876 37.3801 109.838 37.6163 109.838C38.0091 109.838 38.3643 109.934 38.6821 110.126C39.0021 110.316 39.257 110.578 39.4467 110.914C39.6365 111.249 39.7314 111.633 39.7314 112.066C39.7314 112.498 39.6332 112.89 39.4368 113.241C39.2426 113.592 38.969 113.87 38.6159 114.075C38.2628 114.278 37.8502 114.377 37.3779 114.373ZM37.3746 113.512C37.635 113.512 37.8678 113.448 38.073 113.32C38.2783 113.192 38.4405 113.02 38.5596 112.804C38.6788 112.588 38.7384 112.346 38.7384 112.079C38.7384 111.819 38.6799 111.581 38.5629 111.367C38.4482 111.153 38.2893 110.983 38.0863 110.858C37.8855 110.732 37.656 110.669 37.3978 110.669C37.2014 110.669 37.0193 110.706 36.8516 110.782C36.6861 110.857 36.5405 110.96 36.4147 111.093C36.2889 111.225 36.1896 111.377 36.1168 111.549C36.0462 111.719 36.0109 111.899 36.0109 112.089C36.0109 112.343 36.0693 112.578 36.1863 112.794C36.3055 113.01 36.4676 113.185 36.6729 113.317C36.8803 113.447 37.1142 113.512 37.3746 113.512ZM40.7948 112.956V112.129L43.7242 107.501H44.3763V108.719H43.9625L41.8672 112.036V112.089H45.8824V112.956H40.7948ZM44.0089 114.28V112.705L44.0155 112.327V107.501H44.9854V114.28H44.0089ZM49.5161 116.187V109.196H50.4826V110.02H50.5654C50.6227 109.914 50.7055 109.792 50.8136 109.653C50.9217 109.514 51.0718 109.392 51.2638 109.289C51.4558 109.183 51.7095 109.13 52.0251 109.13C52.4356 109.13 52.8019 109.233 53.1241 109.441C53.4462 109.648 53.6989 109.947 53.8821 110.338C54.0674 110.729 54.1601 111.199 54.1601 111.748C54.1601 112.298 54.0685 112.769 53.8854 113.161C53.7022 113.552 53.4507 113.853 53.1307 114.065C52.8107 114.275 52.4455 114.38 52.035 114.38C51.7261 114.38 51.4734 114.328 51.277 114.224C51.0828 114.12 50.9306 113.999 50.8202 113.86C50.7099 113.721 50.6249 113.597 50.5654 113.489H50.5058V116.187H49.5161ZM50.4859 111.738C50.4859 112.096 50.5378 112.409 50.6415 112.678C50.7452 112.947 50.8953 113.158 51.0917 113.31C51.2881 113.46 51.5286 113.536 51.8133 113.536C52.109 113.536 52.3561 113.457 52.5547 113.3C52.7533 113.142 52.9034 112.926 53.0049 112.655C53.1086 112.384 53.1605 112.078 53.1605 111.738C53.1605 111.403 53.1097 111.101 53.0082 110.834C52.9089 110.567 52.7588 110.357 52.558 110.202C52.3594 110.048 52.1112 109.971 51.8133 109.971C51.5264 109.971 51.2836 110.044 51.085 110.192C50.8886 110.34 50.7397 110.546 50.6382 110.811C50.5367 111.076 50.4859 111.385 50.4859 111.738ZM55.8499 109.196L56.972 111.175L58.1041 109.196H59.1865L57.601 111.738L59.1997 114.28H58.1173L56.972 112.38L55.8301 114.28H54.7444L56.3266 111.738L54.7642 109.196H55.8499Z" fill="#0A1215"/>
<path d="M91.4316 94.7346L91.4316 99.1409L0.735445 99.1409L0.735445 94.7346" stroke="black" stroke-width="0.332901"/>
<rect x="18.5258" y="21.4621" width="55.4802" height="55.4802" stroke="#0F0F0F" stroke-width="0.332901"/>
<path d="M60.0681 30.0878C59.9275 30.2285 48.5444 30.6505 42.4359 30.751C38.9496 30.8013 35.0816 30.9419 33.7654 31.0725C32.4594 31.2032 31.0227 31.2936 30.5605 31.2936C29.0635 31.2936 27.7876 32.1778 26.9838 33.8056C26.4815 34.8004 25.2055 39.2416 25.0448 40.4976C24.8941 41.6933 25.0749 41.8541 26.3509 41.6732C26.8633 41.6129 27.4259 41.5325 27.6067 41.5124C27.7876 41.4823 28.1191 41.4119 28.3803 41.3517C28.732 41.2713 28.8123 41.3014 28.8324 41.5426C28.8324 41.7837 28.8626 41.7837 28.9329 41.6029C29.0635 41.2612 29.3147 41.1206 29.7668 41.1206C29.9729 41.1206 30.1356 41.2957 30.1203 41.5013L30.0381 42.6077C29.9878 43.4115 29.9376 44.5268 29.9376 45.0594C29.9251 45.6732 29.6017 46.2387 29.0791 46.5609L28.1894 47.1092C27.235 47.702 26.2404 48.3049 25.959 48.4355C25.3763 48.7269 25.1854 49.0987 25.3964 49.4805C25.4768 49.6312 25.5773 52.1935 25.6275 55.1576C25.6777 58.1218 25.7882 61.0558 25.8686 61.6888C25.9691 62.3018 26.1298 63.9496 26.2203 65.3162C26.4614 68.632 26.5619 68.8028 28.4004 68.9435C29.1238 69.0038 31.2738 69.0239 33.1727 68.9636C46.6154 68.622 49.2879 68.5315 50.0816 68.3808C50.9556 68.2401 57.6569 67.8684 64.2376 67.587C66.9904 67.4865 67.5531 67.4263 67.7841 67.1851C68.0253 66.9439 68.0554 66.3511 68.0252 60.7544C68.0052 52.8064 67.7339 47.692 67.3119 46.9986C66.9603 46.4159 65.4834 45.3407 64.4184 44.9187C63.9706 44.7321 63.656 44.3213 63.5926 43.8403L63.5042 43.1704C63.3936 42.3665 63.3133 41.3316 63.3133 40.8995C63.3133 40.4473 63.2028 39.1411 63.0721 37.9956C62.9415 36.8301 62.831 34.6898 62.831 33.2027V31.0583C62.831 30.7204 62.6459 30.4096 62.3488 30.2486C61.9168 30.0276 60.2389 29.907 60.0681 30.0878ZM62.0775 34.8807C62.1277 37.0411 62.2383 39.6335 62.3186 40.6483C62.399 41.6631 62.5296 43.1503 62.5799 43.9541C62.6036 44.2904 62.6382 44.5972 62.6795 44.851C62.7601 45.3466 63.0398 45.785 63.0454 46.2871C63.0481 46.5288 63.037 46.8405 63.0119 47.2398L62.9983 47.4957C62.9572 48.2719 62.4909 48.9619 61.7862 49.2896C61.1532 49.581 60.3494 50.003 60.0179 50.2241C59.6663 50.4351 59.2744 50.5757 59.1639 50.5355C59.0534 50.4853 58.9529 50.5657 58.9529 50.7164C58.9529 51.2188 56.4814 52.6557 53.829 53.7107C52.9589 54.0444 52.0078 54.1049 51.1025 53.884L50.8451 53.8212C49.9409 53.6002 48.2631 53.3188 47.1077 53.2284C44.7668 53.0375 41.5618 52.515 37.3522 51.681C33.665 50.9375 33.8659 51.0179 34.2276 50.636C34.3783 50.4753 34.4185 50.3245 34.3381 50.3245C34.2377 50.3245 34.0769 50.4351 33.9664 50.5657C33.7755 50.7968 32.6804 50.9174 32.6804 50.7064C32.6804 50.6461 32.9215 50.2743 33.2129 49.8523C33.876 48.9178 34.0066 48.7068 33.9061 48.7068C33.876 48.7068 33.4841 49.1389 33.0722 49.6714C32.6402 50.2341 32.1881 50.636 32.0273 50.636C31.8465 50.636 31.7259 50.6059 31.7259 50.5556C31.7259 50.3346 32.3991 49.169 33.0923 48.2546C33.4942 47.692 33.8056 47.1896 33.7554 47.1393C33.6549 47.0388 32.3488 48.7972 31.7561 49.8121C31.535 50.1939 31.304 50.4451 31.2738 50.3245C31.1934 50.0633 32.6 47.1996 33.4841 45.823C33.8358 45.2704 34.0769 44.8283 34.0166 44.8283C33.8559 44.8283 32.3288 47.28 31.6657 48.5963C31.1935 49.5508 31.103 49.6614 31.0026 49.3499C30.892 48.9681 32.4192 45.8632 33.454 44.4465C33.844 43.9054 33.6525 43.7449 33.2807 44.2986C33.0039 44.7107 32.6592 45.2763 32.2785 45.9436C31.8565 46.6972 31.3743 47.5211 31.2135 47.8025C31.1313 47.9386 30.9222 47.8803 30.9222 47.7213V47.5814C30.9222 46.4661 31.957 44.4666 33.2229 43.0799C33.5645 42.7081 33.7755 42.4168 33.675 42.4168C33.4339 42.4168 32.2283 43.8637 31.5451 44.9991C31.3662 45.2944 30.9121 45.1676 30.9121 44.8224V44.6374C30.9121 43.8637 30.9724 43.2005 31.0528 43.1402C31.1332 43.09 31.4446 42.7483 31.7259 42.3665C31.7766 42.3025 31.689 42.2215 31.6291 42.277L31.5652 42.3364L31.3954 42.4894C31.2131 42.6538 30.9253 42.4986 30.9624 42.256C31.0729 41.5024 31.3341 41.0804 31.5752 41.221C31.6556 41.2713 31.8063 41.2411 31.9168 41.1608C32.0273 41.0603 32.6101 41 33.2229 40.9799C34.107 40.9598 34.3783 41.0301 34.5491 41.2512C34.7299 41.4722 34.7802 41.4722 34.7902 41.2813C34.7955 41.2468 34.7995 41.2101 34.8023 41.1739C34.8146 41.0195 34.8363 40.8392 34.9912 40.8392C36.7996 40.7387 39.2309 40.5478 41.2303 40.367C42.5966 40.2363 44.6763 40.0655 45.8217 39.9751C46.9871 39.8947 48.464 39.754 49.1271 39.6535C52.322 39.2516 52.1211 39.3622 52.6736 37.6339C53.2363 35.8755 53.9195 34.73 54.9945 33.7152C55.9087 32.8812 57.7975 31.6855 58.109 31.7759C58.1693 31.796 58.4908 31.6754 58.8022 31.5147C59.3347 31.2233 60.4298 31.0022 61.4747 30.952C61.7563 30.9409 61.9924 31.1628 61.9988 31.4445L62.0775 34.8807ZM55.8585 31.8965C53.7788 33.263 52.6033 34.7803 51.9302 36.9607C51.4781 38.3976 51.3676 38.5583 50.7848 38.5583C50.2724 38.5583 50.3126 38.2569 51.0461 36.7195C52.0106 34.6195 53.4372 32.64 54.1204 32.3788C54.2811 32.3185 54.251 32.2783 54.0199 32.2783C53.618 32.2582 52.955 32.9515 52.101 34.2779C51.3475 35.4736 50.4834 37.1817 50.2423 38.0157C50.0514 38.6789 50.0012 38.709 49.4185 38.709C48.8257 38.709 48.8257 38.709 48.9362 38.1765C49.1271 37.3526 49.6897 36.197 50.4633 35.0214C51.2168 33.9061 52.6536 32.429 52.9951 32.429C53.1057 32.429 53.1559 32.3788 53.1057 32.3285C52.9248 32.1477 52.0507 32.7506 51.3274 33.5544C50.0715 34.9611 48.6549 37.5736 48.6348 38.5081C48.6348 38.8296 48.5544 38.8799 48.0722 38.8799C47.3187 38.8799 47.2483 38.6186 47.6502 37.3928C48.1626 35.8755 49.1773 34.1472 50.1117 33.2128C50.5638 32.7606 50.8049 32.4592 50.6241 32.5496C49.3381 33.2429 47.7205 35.8855 47.178 38.1765C47.0374 38.8397 46.9168 39.0306 46.6757 39.0306C46.4948 39.0306 46.324 38.92 46.2738 38.7894C46.0126 38.1464 47.2082 35.0616 48.0923 34.0367C48.5142 33.5544 48.5946 33.4037 48.3535 33.5343C47.61 33.9262 46.6254 35.8353 46.113 37.855C45.8418 38.9502 45.7915 39.0306 45.3696 39.0306C44.9957 39.0306 44.8272 38.6999 44.9398 38.3434C45.1737 37.603 45.7319 36.2774 46.2437 35.2827C46.8867 34.0769 46.957 33.8659 46.6154 34.2879C46.2135 34.7702 45.3394 36.5588 44.827 37.9454C44.4252 39.0607 44.3147 39.2014 43.953 39.2215C43.7319 39.2215 43.4205 39.2516 43.2597 39.2818C43.0387 39.332 42.9885 39.2617 43.0688 38.9904C43.2999 38.2167 44.5357 35.9257 45.0481 35.3329C45.3394 34.9812 45.5002 34.72 45.3696 34.7702C44.8672 34.9812 43.3401 37.4631 42.8679 38.8196C42.7273 39.2416 42.5966 39.332 41.9938 39.4325C41.1198 39.5732 40.959 39.4023 41.2705 38.6789C41.6723 37.6942 42.8177 35.8253 43.4104 35.1621C43.7319 34.8104 43.9128 34.5291 43.8123 34.5291C43.4406 34.5291 42.2852 36.1367 41.4915 37.7846C40.7983 39.1712 40.5571 39.5129 40.2356 39.5732C39.673 39.6837 39.5424 39.5531 39.6529 39.0205C39.8137 38.1966 40.8786 36.0664 41.4111 35.5037C41.8632 35.0214 41.8833 34.9712 41.5216 35.1822C40.9088 35.5741 40.1653 36.81 39.6529 38.3071C39.2209 39.6536 39.2008 39.6837 38.6884 39.6837C38.397 39.6837 38.1559 39.6234 38.1559 39.543C38.1559 39.1411 39.1908 36.5789 39.6429 35.8855C40.0447 35.2425 40.0648 35.1621 39.7735 35.4133C39.3013 35.8454 38.8391 36.7497 38.3267 38.2971C37.8746 39.6335 37.523 40.0655 37.1814 39.7339C36.9403 39.4928 37.2618 38.5684 38.166 36.82C38.5076 36.187 38.6985 35.6544 38.6181 35.6544C38.4573 35.6544 37.101 38.3674 36.8398 39.2315C36.6589 39.8244 36.6489 39.8445 35.8753 39.8445C35.4533 39.8445 35.1017 39.8143 35.1017 39.744C35.1017 39.4425 36.1867 37.232 36.669 36.5487C37.2316 35.7449 37.2316 35.7449 36.7494 36.197C36.237 36.6793 35.4935 37.9856 35.0213 39.2315L35.0026 39.2813C34.8385 39.7168 34.4218 40.0052 33.9563 40.0052H33.8209C33.5034 40.0052 33.2803 39.6925 33.3837 39.3923C33.7554 38.3775 34.4185 37.1516 34.961 36.5085L35.4734 35.8956L34.8606 36.4583C34.3482 36.9406 33.2932 38.7995 32.9416 39.8746C32.8813 40.0655 32.6703 40.166 32.3488 40.166C32.0876 40.166 31.8666 40.1359 31.8666 40.0856C31.8666 39.7942 32.8813 37.3325 33.1727 36.9104C33.4439 36.5286 33.464 36.4382 33.2531 36.609C32.8813 36.9104 32.2986 38.076 31.9269 39.2416C31.6556 40.1258 31.6154 40.176 31.103 40.176C30.8117 40.176 30.5705 40.1158 30.5705 40.0454C30.5705 39.6937 31.4044 37.1616 31.6958 36.6391L31.7246 36.5899C31.766 36.5194 31.6712 36.4487 31.6154 36.5085C31.3944 36.7698 31.0327 37.5535 30.8117 38.3674C30.5705 39.1411 30.3294 39.8847 30.2591 40.0153C30.1184 40.2866 29.2745 40.4473 29.2745 40.1961C29.2745 39.533 30.7112 36.2473 31.1332 35.9559C31.2336 35.8755 31.2336 35.8253 31.103 35.8253C30.7614 35.8253 30.1385 36.9908 29.5558 38.6588C29.0434 40.1459 28.9731 40.2564 28.4908 40.3469C28.2196 40.4072 27.9885 40.4473 27.9885 40.4273C27.9885 40.4072 28.1995 39.8143 28.4607 39.1009C29.1037 37.3325 29.7467 35.9257 29.9778 35.765C30.1184 35.6645 30.1084 35.6343 29.9275 35.6846C29.606 35.765 28.7521 37.4932 28.1995 39.1713C27.8478 40.2564 27.6871 40.5277 27.3756 40.6081C27.1848 40.6584 26.9537 40.6383 26.9034 40.588C26.7427 40.4272 27.6168 37.8952 28.2698 36.5588C28.6114 35.8956 28.7822 35.3932 28.6918 35.4434C28.4306 35.5439 27.4359 37.7444 26.9034 39.3923C26.5518 40.5076 26.3911 40.8091 26.1499 40.8091C25.8887 40.8091 25.8787 40.7287 25.959 40.1961C26.17 39.0004 27.024 36.5085 27.4058 35.9257C27.8077 35.3429 27.7775 35.1319 27.3556 35.5238C27.1747 35.7047 27.1647 35.6544 27.2551 35.3329C27.5967 34.2075 28.4607 32.9515 29.1941 32.5396C29.807 32.1979 33.7454 31.9467 40.5571 31.786C44.3247 31.6855 48.5343 31.5649 49.9108 31.4845C51.2771 31.4242 53.397 31.3438 54.5826 31.3238L55.6815 31.3136C55.9984 31.3107 56.1235 31.7228 55.8585 31.8965ZM65.5135 46.4862C65.6743 46.6168 65.6241 46.7274 65.3327 46.9585C64.8304 47.3604 64.75 47.3403 64.75 46.858C64.75 46.3254 64.3682 46.3455 64.117 46.8781C63.8558 47.4709 63.7654 47.3001 63.8759 46.4058C63.9297 46.0439 64.3242 45.8363 64.6495 46.0039C65.0112 46.1747 65.4131 46.4058 65.5135 46.4862ZM64.7902 47.5312C64.9007 47.6618 64.7902 47.8025 64.4385 47.9834C64.0662 48.1631 63.8759 47.9637 64.0292 47.5797C64.062 47.4973 64.0983 47.41 64.1371 47.3202C64.4586 46.6269 64.5089 46.5766 64.5591 46.9283C64.5892 47.1594 64.6897 47.4207 64.7902 47.5312ZM66.046 47.0187C66.046 47.0489 65.835 47.1996 65.5638 47.3403C65.0313 47.6116 64.9509 47.5613 65.3427 47.1996C65.5638 46.9484 66.046 46.8379 66.046 47.0187ZM29.9878 48.4154C30.0381 49.159 30.1184 49.8824 30.1787 50.0231C30.2792 50.2844 30.229 50.2843 29.586 50.1035C29.1704 49.977 28.8794 49.6026 28.8595 49.1686L28.8425 48.7972C28.8123 47.8929 28.8425 47.6719 29.0836 47.491C29.3549 47.3001 29.375 47.3302 29.4654 48.0235C29.4751 48.0962 29.582 48.0904 29.5837 48.0171L29.586 47.9231C29.6261 46.6269 29.8874 46.9484 29.9878 48.4154ZM66.7493 48.5661C66.8179 49.0278 66.6405 49.4917 66.2813 49.7898L65.4432 50.4853C64.6696 51.1485 63.9965 51.6911 63.9563 51.7313C63.9261 51.7614 63.9261 51.8116 63.9764 51.8619C64.0266 51.9121 64.6495 51.4399 65.3829 50.8169C66.1063 50.204 66.7393 49.6915 66.7895 49.6915C66.8397 49.6915 66.8498 50.0733 66.8397 50.5255C66.8096 50.9978 66.8598 51.671 66.9201 52.0227C67.0306 52.6557 66.9804 52.7361 65.9556 54.0423C65.3729 54.7959 64.8304 55.4289 64.75 55.4591C64.5691 55.5194 64.5591 55.8108 64.7299 55.8108C64.7902 55.8108 65.2925 55.228 65.8551 54.5246C66.4178 53.8112 66.9402 53.2686 67.0105 53.3189C67.0909 53.3691 67.1612 54.0724 67.1612 54.8863C67.1482 55.8361 66.813 56.7533 66.2106 57.4876L66.1766 57.529C65.7766 58.0091 65.466 58.4418 65.3442 58.6708C65.289 58.7744 65.3703 58.9483 65.4533 58.8653C65.4834 58.8352 65.8752 58.3328 66.3072 57.75L66.7169 57.2107C66.8514 57.0336 67.1336 57.1163 67.1512 57.3381C67.2014 57.8706 67.1009 58.0816 66.4579 58.9055C66.0561 59.418 65.7848 59.8601 65.8752 59.8601C65.9556 59.8601 66.2771 59.5185 66.5685 59.1166C67.0206 58.4735 67.1009 58.4232 67.1512 58.7146C67.1813 58.9357 66.9603 59.3477 66.478 59.8902C66.0762 60.3625 65.7346 60.7946 65.7346 60.8549C65.7346 61.1517 66.1284 60.7214 66.3083 60.4852C66.3969 60.3688 66.5034 60.2358 66.6187 60.1013C66.8139 59.8782 67.1813 60.0162 67.1813 60.3126V62.342V63.9608C67.1813 64.4366 66.611 64.6804 66.2671 64.3516C65.7547 63.8693 64.6897 63.1056 63.8859 62.6936C61.8665 61.5984 61.3541 61.2266 59.616 59.5486C58.7821 58.7247 57.3957 57.5189 56.5517 56.8457C55.7178 56.1725 54.7835 55.3988 54.5022 55.1375C54.2525 54.902 54.3293 54.4872 54.6467 54.3566L55.3863 54.0524C56.9838 53.3892 57.5765 53.0576 59.2041 51.8719C59.8558 51.3994 64.2396 48.9912 65.9551 48.1292C66.3709 47.9203 66.6803 48.1059 66.7493 48.5661ZM28.6415 48.8676C28.6415 49.7016 28.6114 49.8221 28.3703 49.7217C27.8579 49.5408 27.677 49.3197 27.677 48.8676C27.677 48.4657 28.1493 47.9331 28.531 47.913C28.6014 47.903 28.6415 48.335 28.6415 48.8676ZM27.5163 49.0283C27.5163 49.2394 27.4058 49.3499 27.2048 49.3499C26.7728 49.3499 26.6422 49.0786 26.9738 48.8877C27.4058 48.6465 27.5163 48.6767 27.5163 49.0283ZM28.3401 50.6461C29.1439 50.9073 30.4198 51.2389 31.1935 51.3896C31.9671 51.5303 34.4185 52.0026 36.6288 52.4346C42.4158 53.56 45.1285 54.0021 47.0374 54.1126C49.1673 54.2433 51.0059 54.6251 50.6643 54.9064C50.5337 55.0069 50.4031 55.228 50.3729 55.3887C50.3126 55.7706 49.2276 56.4237 46.9369 57.4486C45.9724 57.8806 44.4051 58.7548 43.4707 59.3878C42.0642 60.3424 39.2912 61.8697 34.7701 64.1908C34.3683 64.4018 33.9362 64.6229 33.8056 64.7032C33.5142 64.8641 33.0191 65.1028 32.5907 65.2925C32.0599 65.5276 31.8865 65.3198 32.1962 64.8288C32.2261 64.7812 32.257 64.7326 32.2886 64.6831C32.6229 64.1817 32.4771 64.1378 32.1277 64.6289C32.0432 64.7476 31.9549 64.8747 31.8666 65.0047C31.314 65.7985 30.5605 66.4416 30.1888 66.4416C30.1385 66.4416 30.3696 65.9592 30.6911 65.3463C31.4044 64.0401 31.2035 64.1807 30.2189 65.7181C29.6261 66.6727 29.3448 66.9439 28.531 67.376C27.4158 67.9688 27.3556 67.9688 27.3556 67.6473C27.3556 67.5167 27.4158 67.4062 27.4962 67.4062C27.6268 67.4062 29.6764 64.5324 30.3997 63.3267C31.1533 62.0807 30.5404 62.8142 29.0334 64.9846C28.1794 66.2305 27.4058 67.2454 27.3254 67.2454C27.2651 67.2454 27.1948 67.0344 27.1948 66.7731C27.1948 66.4617 27.5464 65.8186 28.2598 64.8037C28.9423 63.8469 29.4352 63.1288 29.7336 62.6586C30.0009 62.2375 29.8934 62.1766 29.5915 62.5736C29.3397 62.9047 29.0092 63.3532 28.6516 63.8492C27.4058 65.5875 27.2651 65.7181 27.1546 65.3765C27.014 64.9444 27.2852 64.2913 28.3904 62.5731C28.8516 61.8544 29.1794 61.3404 29.4056 60.9787C29.741 60.4426 29.5819 60.4557 29.2187 60.9734C28.9657 61.334 28.6541 61.7933 28.3301 62.2817C27.1647 64.0401 27.0441 64.1808 27.0441 63.7185C27.0441 63.0252 27.4761 62.1912 28.9128 60.1415C29.7166 59.0161 29.8974 58.6945 29.4654 59.1768C29.1138 59.5788 28.4306 60.463 27.9684 61.1462C27.7645 61.4456 27.5719 61.7169 27.4131 61.9301C27.1672 62.2603 26.8834 62.2312 26.8834 61.8195C26.8834 61.2568 27.5163 60.2118 29.4152 57.6395C29.807 57.127 29.8874 56.9462 29.6462 57.1572C29.4353 57.3381 28.7119 58.2524 28.0186 59.207L27.3121 60.1951C27.1262 60.455 26.7177 60.3485 26.6824 60.0309C26.6181 59.452 26.7871 58.8714 27.152 58.4175L28.1894 57.127C29.0635 56.0318 29.7869 55.0973 29.7869 55.0672C29.7869 54.8562 29.5558 55.0973 28.4507 56.4739C27.7876 57.2979 27.0943 58.1218 26.9034 58.2826C26.7707 58.3997 26.5618 58.3055 26.5618 58.1284V57.7299C26.5618 56.9562 26.6221 56.8156 27.3355 55.9715C27.7574 55.4691 28.3502 54.7457 28.6415 54.3437L29.174 53.6203L28.6415 54.183C28.3401 54.4945 27.7574 55.1476 27.3355 55.6299L27.1705 55.8184C26.9594 56.0598 26.5618 55.9104 26.5618 55.5897C26.5618 54.6854 26.592 54.6251 27.5263 53.5299C28.7018 52.1734 28.6416 52.0327 27.4259 53.3189L27.2109 53.5487C26.9795 53.7961 26.5648 53.6274 26.5719 53.2887C26.5719 52.3241 26.5719 52.3241 27.3656 51.6911C27.3834 51.6772 27.401 51.6634 27.4184 51.6497C27.9223 51.2523 27.7863 51.0892 27.2852 51.4901C26.9962 51.727 26.5618 51.5214 26.5618 51.1477V51.1183C26.5618 50.4323 27.0809 50.2289 27.7334 50.4406C27.9236 50.5023 28.1294 50.5714 28.3401 50.6461ZM53.6683 55.5395C53.8793 55.7505 54.7935 56.5242 55.7279 57.2677C56.6622 57.9912 58.1793 59.3276 59.1137 60.2319C60.8016 61.8798 61.756 62.5731 63.5343 63.4573C64.4828 63.9418 65.7928 65.0567 66.435 65.823C66.8079 66.2679 66.5028 66.6214 65.9235 66.6604C65.2271 66.7073 64.1777 66.7586 63.0219 66.7932C61.0025 66.8736 58.2296 66.9841 56.8632 67.0545C56.1693 67.0851 55.5324 67.1131 55.0696 67.132C54.5712 67.1523 54.4209 66.9295 54.717 66.5281C55.2379 65.8217 56.1462 64.6966 56.6924 64.1104L57.5966 63.1558L56.8431 63.7889C56.4211 64.1406 55.7178 64.9042 55.2657 65.4468C54.8136 66.0095 54.3414 66.5923 54.2209 66.7229C54.0903 66.8535 53.9797 67.0243 53.9797 67.1047C53.9797 67.1851 53.6281 67.2454 53.176 67.2454C52.744 67.2454 52.3722 67.2152 52.3722 67.165C52.3722 67.1047 53.3267 65.7784 54.8538 63.6984C55.0045 63.4874 55.0045 63.4874 54.7533 63.6683C54.6127 63.7788 53.9295 64.6229 53.2363 65.5171C52.5631 66.4215 51.9804 67.1952 51.9503 67.2253C51.8197 67.3861 47.9717 67.7277 46.7761 67.6875C46.1883 67.6659 45.859 67.0007 46.1982 66.5202L46.4948 66.0999C47.0876 65.2659 47.4191 64.7133 47.2182 64.8942C47.0273 65.075 46.4647 65.7784 45.9623 66.4616C45.3946 67.2503 44.4822 67.7177 43.5105 67.7177H43.4004C41.4312 67.7177 41.4513 67.8282 43.1693 65.8186C43.8023 65.1052 44.2142 64.5425 44.0936 64.5927C43.9027 64.653 42.2048 66.542 41.5518 67.4263C41.3408 67.6976 39.6529 68.0191 39.6529 67.798C39.6529 67.5066 40.8987 66.0296 42.0441 64.9645C43.0588 63.9999 43.1593 63.8793 42.5263 64.3013C41.7527 64.8339 39.9945 66.6727 39.5324 67.4263C39.3214 67.7779 39.1506 67.8784 38.7286 67.8784C38.0956 67.8784 38.0655 67.9588 39.3917 66.1903C40.3461 64.8841 40.1151 65.075 38.377 67.0444C37.8244 67.6775 37.5029 67.8784 37.0206 67.9789C36.8046 68.0166 36.6588 67.7645 36.7994 67.5961L37.5029 66.753C39.6931 64.1205 39.3716 64.2712 36.9202 67.0243C36.1164 67.9287 35.9657 68.0191 35.2323 68.1196C34.9676 68.146 34.8182 67.8236 35.0095 67.6387L36.1968 66.4918C37.1613 65.5372 37.8043 64.8439 37.6335 64.9444C37.4526 65.0449 36.5987 65.7784 35.7447 66.5923C35.1591 67.1435 34.6113 67.6144 34.2989 67.8397C34.1357 67.9574 33.899 67.8804 33.7755 68.0392C33.7052 68.1296 32.9416 68.2 31.9068 68.2H30.7952C30.5165 68.2 30.3487 67.8912 30.5002 67.6574C30.8117 67.1851 31.6556 66.5923 32.0173 66.5923C32.0675 66.5923 31.957 66.8133 31.7561 67.0746C31.3542 67.6373 31.4346 68.0392 31.9369 68.0392C32.2886 68.0392 33.9965 66.7832 34.5792 66.0899L34.638 66.0183C34.67 65.9793 34.6184 65.9274 34.5792 65.9592C34.3984 66.0999 33.7855 66.5923 33.2229 67.0545C31.7862 68.1799 31.3743 68.1397 32.1077 66.954C32.3689 66.5219 32.7708 66.2406 33.7855 65.7784C34.5089 65.4368 35.5437 64.8942 36.0561 64.5525C36.5685 64.231 37.523 63.7185 38.1861 63.4071C39.8338 62.6635 42.7674 61.0056 43.6214 60.3625C44.7969 59.4582 45.5906 59.006 47.5397 58.1318C48.5745 57.6596 50.0213 56.906 50.7848 56.4237C53.1157 54.9667 53.1157 54.9667 53.6683 55.5395ZM29.9476 67.9086C29.7869 68.0894 29.5156 68.21 29.3348 68.1799C29.0937 68.1296 29.1238 68.0693 29.5257 67.8382C30.1888 67.4865 30.3395 67.5066 29.9476 67.9086Z" fill="#6D6E71"/>
<path d="M58.3399 34.2478C56.7324 35.8555 55.4062 37.2622 55.4062 37.3426C55.4062 37.5235 60.1986 32.8009 60.922 31.8966C61.2292 31.5184 61.1551 31.4613 60.8057 31.8009C60.2614 32.33 59.3576 33.23 58.3399 34.2478Z" fill="#6D6E71"/>
<path d="M61.7067 31.616C61.6766 32.0481 60.0892 34.3089 58.6726 35.9166C56.613 38.2678 56.1408 38.8707 56.2915 38.9912C56.3517 39.0515 56.4522 39.0113 56.5024 38.8908C56.5828 38.6496 56.7938 38.3884 58.8534 36.0371C60.6618 33.9773 61.9679 31.9777 61.7871 31.5557C61.757 31.4552 61.7067 31.4753 61.7067 31.616Z" fill="#6D6E71"/>
<path d="M58.1291 32.8139C56.7728 33.9895 54.5323 36.4412 54.683 36.5819C54.7132 36.6121 54.9442 36.4011 55.1854 36.1097C55.4265 35.8082 56.5216 34.6728 57.6167 33.5776C58.0077 33.2006 58.3678 32.8459 58.6693 32.5442C59.2786 31.9345 59.2179 31.8704 58.5654 32.4336C58.4271 32.553 58.2803 32.6808 58.1291 32.8139Z" fill="#6D6E71"/>
<path d="M56.843 32.7578C55.557 33.7927 54.5824 34.7071 54.6829 34.8076C54.7331 34.8578 55.1852 34.5061 55.6775 34.0138C56.1899 33.5315 56.9334 32.8683 57.3353 32.5468C57.7952 32.1788 57.7043 32.0961 57.2358 32.4531C57.1123 32.5471 56.9796 32.6499 56.843 32.7578Z" fill="#6D6E71"/>
<path d="M61.2824 33.9865C61.1217 34.2277 60.4284 35.2124 59.7352 36.1669C58.399 37.9756 57.334 39.6536 57.334 39.9249C57.334 40.0053 57.5249 39.7641 57.766 39.3622C58.0071 38.9603 58.831 37.7646 59.5845 36.6995C60.6338 35.2292 61.172 34.4763 61.4326 34.0814C61.6221 33.7943 61.4732 33.7003 61.2824 33.9865Z" fill="#6D6E71"/>
<path d="M60.3198 37.2941C59.707 38.2084 58.8228 39.5046 58.3205 40.1678C57.8182 40.831 57.3158 41.5042 57.2053 41.6549C57.0948 41.8157 57.0646 41.9463 57.145 41.9463C57.3761 41.9463 60.7518 37.1735 61.3547 36.018C61.7565 35.2443 61.3748 35.7165 60.3198 37.2941Z" fill="#6D6E71"/>
<path d="M60.9615 38.4418C60.6099 39.0748 59.7559 40.381 59.0727 41.3557C58.3996 42.3404 57.8671 43.1744 57.9173 43.2146C57.9977 43.295 57.8872 43.4356 59.3038 41.3758C60.8209 39.1351 61.7352 37.6178 61.6548 37.447C61.6246 37.3666 61.3232 37.8188 60.9615 38.4418Z" fill="#6D6E71"/>
<path d="M60.6123 40.6993C60.0798 41.5233 59.0449 42.8798 58.3417 43.7137C58.1455 43.9431 57.9622 44.1649 57.8006 44.3668C57.3142 44.9744 57.4556 45.1169 57.9597 44.5238C58.2935 44.1312 58.7411 43.5844 59.3263 42.8597C60.3109 41.6137 61.7777 39.373 61.6672 39.2826C61.627 39.2424 61.1648 39.8754 60.6123 40.6993Z" fill="#6D6E71"/>
<path d="M32.4791 42.5355C31.7557 43.3293 31.0625 44.3944 31.0625 44.726C31.0625 44.937 31.2232 44.7561 31.4845 44.2537C31.7055 43.8216 32.1576 43.1585 32.4691 42.7666C33.092 42.0029 33.1121 41.8723 32.4791 42.5355Z" fill="#6D6E71"/>
<path d="M61.0333 42.4519C60.8022 42.8839 59.3555 44.793 58.1298 46.26C57.6777 46.8127 57.3361 47.305 57.3763 47.3553C57.4265 47.4055 57.7179 47.1342 58.0092 46.7424C58.3207 46.3505 58.9134 45.617 59.3655 45.0844C60.4305 43.8083 61.4653 42.281 61.3347 42.1705C61.2744 42.1102 61.1438 42.2408 61.0333 42.4519Z" fill="#6D6E71"/>
<path d="M61.1631 44.4166C60.2891 45.7731 58.5509 48.1444 58.3098 48.3052C58.2294 48.3554 58.0687 48.5664 57.9682 48.7573C57.9296 48.8286 58.0187 48.9003 58.08 48.8473L58.1491 48.7875C58.983 48.064 62.1779 43.5022 61.987 43.3113C61.9468 43.2611 61.565 43.7635 61.1631 44.4166Z" fill="#6D6E71"/>
<path d="M61.3734 46.0823C60.9012 46.856 59.9367 48.0819 59.2334 48.8254C58.5201 49.569 58.0278 50.1618 58.1082 50.1618C58.3292 50.1618 60.4089 47.9513 61.0117 47.0871C61.2254 46.7836 61.5082 46.3038 61.7549 45.8525C62.1684 45.0962 62.0217 45.0217 61.5708 45.7563C61.5066 45.861 61.4404 45.9702 61.3734 46.0823Z" fill="#6D6E71"/>
<path d="M61.685 47.4233C61.5744 47.6142 61.042 48.2975 60.4894 48.9406C59.1833 50.4277 58.9924 50.8396 60.1478 49.6037C61.1625 48.5386 62.0868 47.2826 61.9562 47.152C61.916 47.1118 61.7854 47.2324 61.685 47.4233Z" fill="#6D6E71"/>
<path d="M65.625 48.5725C64.6304 49.3462 63.1435 50.6826 63.2238 50.763C63.2841 50.8233 64.4194 49.8788 66.047 48.4218C66.4187 48.0902 66.1274 48.1907 65.625 48.5725Z" fill="#6D6E71"/>
<path d="M65.3219 52.4223C64.709 53.0352 64.277 53.5476 64.3674 53.5476C64.4478 53.5476 65.0305 53.0352 65.6434 52.4223C66.2562 51.7892 66.6883 51.2969 66.5978 51.2969C66.5074 51.2969 65.9247 51.7993 65.3219 52.4223Z" fill="#6D6E71"/>
<path d="M66.0273 56.1089C65.5551 56.6414 65.1231 57.0433 65.0427 56.9931C64.9824 56.9428 64.9121 56.9931 64.9121 57.0735C64.9121 57.4754 65.3843 57.2041 66.0574 56.4002C66.8311 55.516 67.0722 55.1543 66.9416 55.1543C66.9014 55.1543 66.4995 55.5864 66.0273 56.1089Z" fill="#6D6E71"/>
<path d="M60.1004 64.4078C59.5838 64.9244 59.102 65.3754 58.7933 65.632C58.5822 65.8075 58.274 65.8503 58.1513 66.0959C58.0709 66.2767 58.0508 66.4475 58.1211 66.4978C58.2517 66.5782 60.9242 63.9355 61.527 63.1618C61.9691 62.5891 61.5471 62.9408 60.1004 64.4078Z" fill="#6D6E71"/>
<path d="M57.8167 64.4675C56.4604 65.834 55.8676 66.6077 56.1891 66.6077C56.2695 66.6077 56.4805 66.3666 56.6714 66.0752C56.8522 65.7838 57.5555 64.99 58.2688 64.3067C58.9822 63.6335 59.4745 63.0608 59.3941 63.0608C59.3037 63.0608 58.6004 63.6938 57.8167 64.4675Z" fill="#6D6E71"/>
<path d="M61.4341 64.3016C61.3134 64.4491 61.2021 64.5861 61.0996 64.7134C60.3383 65.6589 60.5549 65.7937 61.2945 64.8311C61.3141 64.8055 61.3339 64.7797 61.3537 64.7538C61.4386 64.642 61.5207 64.5327 61.5992 64.4273C62.1771 63.6515 62.0534 63.5584 61.4341 64.3016Z" fill="#6D6E71"/>
<path d="M51.2576 65.3521C50.3735 66.176 49.7104 66.8894 49.8109 66.9196C49.8912 66.9497 50.6648 66.2765 51.5188 65.4224C52.3728 64.5683 53.0158 63.875 52.9656 63.875C52.9153 63.875 52.1618 64.5482 51.2576 65.3521Z" fill="#6D6E71"/>
<path d="M62.4472 64.8612C62.0252 65.3334 61.6836 65.7655 61.6836 65.8258C61.6836 66.0871 61.9247 65.9363 62.2362 65.5043C62.417 65.2631 62.7385 64.8311 62.9495 64.5397C63.5423 63.766 63.281 63.9066 62.4472 64.8612Z" fill="#6D6E71"/>
<path d="M48.6533 65.6624C47.8496 66.4863 47.2669 67.1897 47.3473 67.2098C47.4477 67.2399 47.7994 66.9485 48.1209 66.5767C48.4424 66.1949 49.0753 65.4815 49.5073 65.0093C50.8034 63.6327 50.2307 64.0647 48.6533 65.6624Z" fill="#6D6E71"/>
<path d="M63.705 65.1558C63.273 65.5878 62.9515 65.9897 62.9917 66.0299C63.072 66.1103 63.5242 65.6582 64.3279 64.7036C64.8805 64.0706 64.5288 64.3117 63.705 65.1558Z" fill="#6D6E71"/>
<path d="M44.4964 65.7479C43.331 67.0542 42.9995 67.4862 43.2707 67.3958C43.4114 67.3355 45.4107 65.0747 45.6418 64.703C45.913 64.2307 45.5413 64.5924 44.4964 65.7479Z" fill="#6D6E71"/>
</svg>
